<svg id="Layer_1" data-name="Layer 1" xmlns="http://www.w3.org/2000/svg" xmlns:xlink="http://www.w3.org/1999/xlink" viewBox="0 0 980 1050"><defs><clipPath id="clip-path"><path d="M904.47,280.68c-50.6,74-52.92-35.28-52.92-35.28h-43V220.08c-46.79.77-43.72-6.9-43.72-6.9-66.73-94.34-98.17-86.67-98.17-86.67V110.41H627.59c0-.72-0.06-1.44-0.08-2.16l0.33-.51c0-54.19-56.65-97-118.36-104.9l-0.72-.1c-0.84-.1-1.68-0.18-2.52-0.27a151,151,0,0,0-16.71-1H489a151,151,0,0,0-16.71,1c-0.84.09-1.68,0.17-2.52,0.27l-0.72.1c-61.72,7.94-118.36,50.7-118.36,104.9l0.33,0.51c0,0.72-.08,1.44-0.08,2.16H311.84v16.11s-31.45-7.67-98.17,86.67c0,0,3.07,7.67-43.72,6.9v25.31H127s-2.32,109.23-52.92,35.28L2,281.44v19.17L15,316v732.55H212V601.09C212,447.85,336.1,323.6,489.27,323.33c153.17,0.28,277.26,124.52,277.26,277.76v447.42h197V316l13-15.34V281.44Z" style="fill:none"/></clipPath><clipPath id="clip-path-2"><rect x="211.85" y="798" width="554.69" height="250.5" style="fill:none"/></clipPath></defs><title>Tornado Party</title><g style="clip-path:url(#clip-path)"><polygon points="1080.12 -27.52 489.08 -27.52 489.08 818.59 1080.12 818.59 1080.12 -27.52 1080.12 -27.52" style="fill:#d9b685"/><path d="M979.82-28.17h-93a0.87,0.87,0,0,0-1,.73V2.24a0.87,0.87,0,0,0,1,.73h93a0.87,0.87,0,0,0,1-.73V-27.44a0.87,0.87,0,0,0-1-.73h0Z" style="fill:#f1ddbf"/><path d="M880.66-28.17h-93a0.87,0.87,0,0,0-1,.73V2.24a0.87,0.87,0,0,0,1,.73h93a0.87,0.87,0,0,0,1-.73V-27.44a0.87,0.87,0,0,0-1-.73h0Z" style="fill:#edd4ac"/><path d="M781.49-28.17h-93a0.87,0.87,0,0,0-1,.73V2.24a0.87,0.87,0,0,0,1,.73h93a0.87,0.87,0,0,0,1-.73V-27.44a0.87,0.87,0,0,0-1-.73h0Z" style="fill:#edd4ac"/><path d="M682.33-28.17h-93a0.87,0.87,0,0,0-1,.73V2.24a0.87,0.87,0,0,0,1,.73h93a0.87,0.87,0,0,0,1-.73V-27.44a0.87,0.87,0,0,0-1-.73h0Z" style="fill:#f1ddbf"/><path d="M583.16-28.17h-93a0.87,0.87,0,0,0-1,.73V2.24a0.87,0.87,0,0,0,1,.73h93a0.87,0.87,0,0,0,1-.73V-27.44a0.87,0.87,0,0,0-1-.73h0Z" style="fill:#edd4ac"/><path d="M1028.2,7.27h-93a0.87,0.87,0,0,0-1,.73V37.68a0.87,0.87,0,0,0,1,.73h93a0.87,0.87,0,0,0,1-.73V8a0.87,0.87,0,0,0-1-.73h0Z" style="fill:#edd4ac"/><path d="M929,7.27H836a0.87,0.87,0,0,0-1,.73V37.68a0.87,0.87,0,0,0,1,.73h93a0.87,0.87,0,0,0,1-.73V8a0.87,0.87,0,0,0-1-.73h0Z" style="fill:#edd4ac"/><path d="M829.87,7.27h-93a0.87,0.87,0,0,0-1,.73V37.68a0.87,0.87,0,0,0,1,.73h93a0.87,0.87,0,0,0,1-.73V8a0.87,0.87,0,0,0-1-.73h0Z" style="fill:#edd4ac"/><path d="M730.7,7.27h-93a0.87,0.87,0,0,0-1,.73V37.68a0.87,0.87,0,0,0,1,.73h93a0.87,0.87,0,0,0,1-.73V8a0.87,0.87,0,0,0-1-.73h0Z" style="fill:#edd4ac"/><path d="M631.54,7.27h-93a0.87,0.87,0,0,0-1,.73V37.68a0.87,0.87,0,0,0,1,.73h93a0.87,0.87,0,0,0,1-.73V8a0.87,0.87,0,0,0-1-.73h0Z" style="fill:#edd4ac"/><path d="M532.37,7.27H489.08V38.41h43.29a0.87,0.87,0,0,0,1-.73V8a0.87,0.87,0,0,0-1-.73h0Z" style="fill:#edd4ac"/><path d="M979.82,42.76h-93a0.87,0.87,0,0,0-1,.73V73.17a0.87,0.87,0,0,0,1,.73h93a0.87,0.87,0,0,0,1-.73V43.49a0.87,0.87,0,0,0-1-.73h0Z" style="fill:#edd4ac"/><path d="M880.66,42.76h-93a0.87,0.87,0,0,0-1,.73V73.17a0.87,0.87,0,0,0,1,.73h93a0.87,0.87,0,0,0,1-.73V43.49a0.87,0.87,0,0,0-1-.73h0Z" style="fill:#edd4ac"/><path d="M781.49,42.76h-93a0.87,0.87,0,0,0-1,.73V73.17a0.87,0.87,0,0,0,1,.73h93a0.87,0.87,0,0,0,1-.73V43.49a0.87,0.87,0,0,0-1-.73h0Z" style="fill:#edd4ac"/><path d="M682.33,42.76h-93a0.87,0.87,0,0,0-1,.73V73.17a0.87,0.87,0,0,0,1,.73h93a0.87,0.87,0,0,0,1-.73V43.49a0.87,0.87,0,0,0-1-.73h0Z" style="fill:#edd4ac"/><path d="M583.16,42.76h-93a0.87,0.87,0,0,0-1,.73V73.17a0.87,0.87,0,0,0,1,.73h93a0.87,0.87,0,0,0,1-.73V43.49a0.87,0.87,0,0,0-1-.73h0Z" style="fill:#edd4ac"/><path d="M1028.2,78.19h-93a0.87,0.87,0,0,0-1,.73V108.6a0.87,0.87,0,0,0,1,.73h93a0.87,0.87,0,0,0,1-.73V78.92a0.87,0.87,0,0,0-1-.73h0Z" style="fill:#edd4ac"/><path d="M929,78.19H836a0.87,0.87,0,0,0-1,.73V108.6a0.87,0.87,0,0,0,1,.73h93a0.87,0.87,0,0,0,1-.73V78.92a0.87,0.87,0,0,0-1-.73h0Z" style="fill:#edd4ac"/><path d="M829.87,78.19h-93a0.87,0.87,0,0,0-1,.73V108.6a0.87,0.87,0,0,0,1,.73h93a0.87,0.87,0,0,0,1-.73V78.92a0.87,0.87,0,0,0-1-.73h0Z" style="fill:#f1ddbf"/><path d="M730.7,78.19h-93a0.87,0.87,0,0,0-1,.73V108.6a0.87,0.87,0,0,0,1,.73h93a0.87,0.87,0,0,0,1-.73V78.92a0.87,0.87,0,0,0-1-.73h0Z" style="fill:#edd4ac"/><path d="M631.54,78.19h-93a0.87,0.87,0,0,0-1,.73V108.6a0.87,0.87,0,0,0,1,.73h93a0.87,0.87,0,0,0,1-.73V78.92a0.87,0.87,0,0,0-1-.73h0Z" style="fill:#f1ddbf"/><path d="M532.37,78.19H489.08v31.14h43.29a0.87,0.87,0,0,0,1-.73V78.92a0.87,0.87,0,0,0-1-.73h0Z" style="fill:#f1ddbf"/><path d="M979.82,113.68h-93a0.87,0.87,0,0,0-1,.73V144.1a0.87,0.87,0,0,0,1,.73h93a0.87,0.87,0,0,0,1-.73V114.41a0.87,0.87,0,0,0-1-.73h0Z" style="fill:#edd4ac"/><path d="M880.66,113.68h-93a0.87,0.87,0,0,0-1,.73V144.1a0.87,0.87,0,0,0,1,.73h93a0.87,0.87,0,0,0,1-.73V114.41a0.87,0.87,0,0,0-1-.73h0Z" style="fill:#edd4ac"/><path d="M781.49,113.68h-93a0.87,0.87,0,0,0-1,.73V144.1a0.87,0.87,0,0,0,1,.73h93a0.87,0.87,0,0,0,1-.73V114.41a0.87,0.87,0,0,0-1-.73h0Z" style="fill:#edd4ac"/><path d="M682.33,113.68h-93a0.87,0.87,0,0,0-1,.73V144.1a0.87,0.87,0,0,0,1,.73h93a0.87,0.87,0,0,0,1-.73V114.41a0.87,0.87,0,0,0-1-.73h0Z" style="fill:#edd4ac"/><path d="M583.16,113.68h-93a0.87,0.87,0,0,0-1,.73V144.1a0.87,0.87,0,0,0,1,.73h93a0.87,0.87,0,0,0,1-.73V114.41a0.87,0.87,0,0,0-1-.73h0Z" style="fill:#edd4ac"/><path d="M1028.2,149.12h-93a0.87,0.87,0,0,0-1,.73v29.68a0.87,0.87,0,0,0,1,.73h93a0.87,0.87,0,0,0,1-.73V149.85a0.87,0.87,0,0,0-1-.73h0Z" style="fill:#edd4ac"/><path d="M929,149.12H836a0.87,0.87,0,0,0-1,.73v29.68a0.87,0.87,0,0,0,1,.73h93a0.87,0.87,0,0,0,1-.73V149.85a0.87,0.87,0,0,0-1-.73h0Z" style="fill:#f1ddbf"/><path d="M829.87,149.12h-93a0.87,0.87,0,0,0-1,.73v29.68a0.87,0.87,0,0,0,1,.73h93a0.87,0.87,0,0,0,1-.73V149.85a0.87,0.87,0,0,0-1-.73h0Z" style="fill:#edd4ac"/><path d="M730.7,149.12h-93a0.87,0.87,0,0,0-1,.73v29.68a0.87,0.87,0,0,0,1,.73h93a0.87,0.87,0,0,0,1-.73V149.85a0.87,0.87,0,0,0-1-.73h0Z" style="fill:#edd4ac"/><path d="M631.54,149.12h-93a0.87,0.87,0,0,0-1,.73v29.68a0.87,0.87,0,0,0,1,.73h93a0.87,0.87,0,0,0,1-.73V149.85a0.87,0.87,0,0,0-1-.73h0Z" style="fill:#edd4ac"/><path d="M532.37,149.12H489.08v31.14h43.29a0.87,0.87,0,0,0,1-.73V149.85a0.87,0.87,0,0,0-1-.73h0Z" style="fill:#edd4ac"/><path d="M979.82,184.61h-93a0.87,0.87,0,0,0-1,.73V215a0.87,0.87,0,0,0,1,.73h93a0.87,0.87,0,0,0,1-.73V185.34a0.87,0.87,0,0,0-1-.73h0Z" style="fill:#edd4ac"/><path d="M880.66,184.61h-93a0.87,0.87,0,0,0-1,.73V215a0.87,0.87,0,0,0,1,.73h93a0.87,0.87,0,0,0,1-.73V185.34a0.87,0.87,0,0,0-1-.73h0Z" style="fill:#edd4ac"/><path d="M781.49,184.61h-93a0.87,0.87,0,0,0-1,.73V215a0.87,0.87,0,0,0,1,.73h93a0.87,0.87,0,0,0,1-.73V185.34a0.87,0.87,0,0,0-1-.73h0Z" style="fill:#edd4ac"/><path d="M682.33,184.61h-93a0.87,0.87,0,0,0-1,.73V215a0.87,0.87,0,0,0,1,.73h93a0.87,0.87,0,0,0,1-.73V185.34a0.87,0.87,0,0,0-1-.73h0Z" style="fill:#f1ddbf"/><path d="M583.16,184.61h-93a0.87,0.87,0,0,0-1,.73V215a0.87,0.87,0,0,0,1,.73h93a0.87,0.87,0,0,0,1-.73V185.34a0.87,0.87,0,0,0-1-.73h0Z" style="fill:#edd4ac"/><path d="M1028.2,220h-93a0.87,0.87,0,0,0-1,.73v29.68a0.87,0.87,0,0,0,1,.73h93a0.87,0.87,0,0,0,1-.73V220.77a0.87,0.87,0,0,0-1-.73h0Z" style="fill:#edd4ac"/><path d="M929,220H836a0.87,0.87,0,0,0-1,.73v29.68a0.87,0.87,0,0,0,1,.73h93a0.87,0.87,0,0,0,1-.73V220.77a0.87,0.87,0,0,0-1-.73h0Z" style="fill:#edd4ac"/><path d="M829.87,220h-93a0.87,0.87,0,0,0-1,.73v29.68a0.87,0.87,0,0,0,1,.73h93a0.87,0.87,0,0,0,1-.73V220.77a0.87,0.87,0,0,0-1-.73h0Z" style="fill:#f1ddbf"/><path d="M730.7,220h-93a0.87,0.87,0,0,0-1,.73v29.68a0.87,0.87,0,0,0,1,.73h93a0.87,0.87,0,0,0,1-.73V220.77a0.87,0.87,0,0,0-1-.73h0Z" style="fill:#edd4ac"/><path d="M631.54,220h-93a0.87,0.87,0,0,0-1,.73v29.68a0.87,0.87,0,0,0,1,.73h93a0.87,0.87,0,0,0,1-.73V220.77a0.87,0.87,0,0,0-1-.73h0Z" style="fill:#edd4ac"/><path d="M532.37,220H489.08v31.14h43.29a0.87,0.87,0,0,0,1-.73V220.77a0.87,0.87,0,0,0-1-.73h0Z" style="fill:#edd4ac"/><path d="M979.82,255.53h-93a0.87,0.87,0,0,0-1,.73v29.68a0.87,0.87,0,0,0,1,.73h93a0.87,0.87,0,0,0,1-.73V256.26a0.87,0.87,0,0,0-1-.73h0Z" style="fill:#edd4ac"/><path d="M880.66,255.53h-93a0.87,0.87,0,0,0-1,.73v29.68a0.87,0.87,0,0,0,1,.73h93a0.87,0.87,0,0,0,1-.73V256.26a0.87,0.87,0,0,0-1-.73h0Z" style="fill:#edd4ac"/><path d="M781.49,255.53h-93a0.87,0.87,0,0,0-1,.73v29.68a0.87,0.87,0,0,0,1,.73h93a0.87,0.87,0,0,0,1-.73V256.26a0.87,0.87,0,0,0-1-.73h0Z" style="fill:#edd4ac"/><path d="M682.33,255.53h-93a0.87,0.87,0,0,0-1,.73v29.68a0.87,0.87,0,0,0,1,.73h93a0.87,0.87,0,0,0,1-.73V256.26a0.87,0.87,0,0,0-1-.73h0Z" style="fill:#edd4ac"/><path d="M583.16,255.53h-93a0.87,0.87,0,0,0-1,.73v29.68a0.87,0.87,0,0,0,1,.73h93a0.87,0.87,0,0,0,1-.73V256.26a0.87,0.87,0,0,0-1-.73h0Z" style="fill:#edd4ac"/><path d="M1028.2,291h-93a0.87,0.87,0,0,0-1,.73v29.68a0.87,0.87,0,0,0,1,.73h93a0.87,0.87,0,0,0,1-.73V291.7a0.87,0.87,0,0,0-1-.73h0Z" style="fill:#edd4ac"/><path d="M929,291H836a0.87,0.87,0,0,0-1,.73v29.68a0.87,0.87,0,0,0,1,.73h93a0.87,0.87,0,0,0,1-.73V291.7a0.87,0.87,0,0,0-1-.73h0Z" style="fill:#edd4ac"/><path d="M829.87,291h-93a0.87,0.87,0,0,0-1,.73v29.68a0.87,0.87,0,0,0,1,.73h93a0.87,0.87,0,0,0,1-.73V291.7a0.87,0.87,0,0,0-1-.73h0Z" style="fill:#edd4ac"/><path d="M730.7,291h-93a0.87,0.87,0,0,0-1,.73v29.68a0.87,0.87,0,0,0,1,.73h93a0.87,0.87,0,0,0,1-.73V291.7a0.87,0.87,0,0,0-1-.73h0Z" style="fill:#edd4ac"/><path d="M631.54,291h-93a0.87,0.87,0,0,0-1,.73v29.68a0.87,0.87,0,0,0,1,.73h93a0.87,0.87,0,0,0,1-.73V291.7a0.87,0.87,0,0,0-1-.73h0Z" style="fill:#edd4ac"/><path d="M532.37,291H489.08v31.14h43.29a0.87,0.87,0,0,0,1-.73V291.7a0.87,0.87,0,0,0-1-.73h0Z" style="fill:#f1ddbf"/><path d="M979.82,326.46h-93a0.87,0.87,0,0,0-1,.73v29.68a0.87,0.87,0,0,0,1,.73h93a0.87,0.87,0,0,0,1-.73V327.19a0.87,0.87,0,0,0-1-.73h0Z" style="fill:#edd4ac"/><path d="M880.66,326.46h-93a0.87,0.87,0,0,0-1,.73v29.68a0.87,0.87,0,0,0,1,.73h93a0.87,0.87,0,0,0,1-.73V327.19a0.87,0.87,0,0,0-1-.73h0Z" style="fill:#edd4ac"/><path d="M781.49,326.46h-93a0.87,0.87,0,0,0-1,.73v29.68a0.87,0.87,0,0,0,1,.73h93a0.87,0.87,0,0,0,1-.73V327.19a0.87,0.87,0,0,0-1-.73h0Z" style="fill:#f1ddbf"/><path d="M682.33,326.46h-93a0.87,0.87,0,0,0-1,.73v29.68a0.87,0.87,0,0,0,1,.73h93a0.87,0.87,0,0,0,1-.73V327.19a0.87,0.87,0,0,0-1-.73h0Z" style="fill:#edd4ac"/><path d="M583.16,326.46h-93a0.87,0.87,0,0,0-1,.73v29.68a0.87,0.87,0,0,0,1,.73h93a0.87,0.87,0,0,0,1-.73V327.19a0.87,0.87,0,0,0-1-.73h0Z" style="fill:#edd4ac"/><path d="M1028.2,361.89h-93a0.87,0.87,0,0,0-1,.73v29.68a0.87,0.87,0,0,0,1,.73h93a0.87,0.87,0,0,0,1-.73V362.62a0.87,0.87,0,0,0-1-.73h0Z" style="fill:#f1ddbf"/><path d="M929,361.89H836a0.87,0.87,0,0,0-1,.73v29.68a0.87,0.87,0,0,0,1,.73h93a0.87,0.87,0,0,0,1-.73V362.62a0.87,0.87,0,0,0-1-.73h0Z" style="fill:#edd4ac"/><path d="M829.87,361.89h-93a0.87,0.87,0,0,0-1,.73v29.68a0.87,0.87,0,0,0,1,.73h93a0.87,0.87,0,0,0,1-.73V362.62a0.87,0.87,0,0,0-1-.73h0Z" style="fill:#edd4ac"/><path d="M730.7,361.89h-93a0.87,0.87,0,0,0-1,.73v29.68a0.87,0.87,0,0,0,1,.73h93a0.87,0.87,0,0,0,1-.73V362.62a0.87,0.87,0,0,0-1-.73h0Z" style="fill:#edd4ac"/><path d="M631.54,361.89h-93a0.87,0.87,0,0,0-1,.73v29.68a0.87,0.87,0,0,0,1,.73h93a0.87,0.87,0,0,0,1-.73V362.62a0.87,0.87,0,0,0-1-.73h0Z" style="fill:#edd4ac"/><path d="M532.37,361.89H489.08V393h43.29a0.87,0.87,0,0,0,1-.73V362.62a0.87,0.87,0,0,0-1-.73h0Z" style="fill:#edd4ac"/><path d="M979.82,397.38h-93a0.87,0.87,0,0,0-1,.73V427.8a0.87,0.87,0,0,0,1,.73h93a0.87,0.87,0,0,0,1-.73V398.11a0.87,0.87,0,0,0-1-.73h0Z" style="fill:#edd4ac"/><path d="M880.66,397.38h-93a0.87,0.87,0,0,0-1,.73V427.8a0.87,0.87,0,0,0,1,.73h93a0.87,0.87,0,0,0,1-.73V398.11a0.87,0.87,0,0,0-1-.73h0Z" style="fill:#edd4ac"/><path d="M781.49,397.38h-93a0.87,0.87,0,0,0-1,.73V427.8a0.87,0.87,0,0,0,1,.73h93a0.87,0.87,0,0,0,1-.73V398.11a0.87,0.87,0,0,0-1-.73h0Z" style="fill:#edd4ac"/><path d="M682.33,397.38h-93a0.87,0.87,0,0,0-1,.73V427.8a0.87,0.87,0,0,0,1,.73h93a0.87,0.87,0,0,0,1-.73V398.11a0.87,0.87,0,0,0-1-.73h0Z" style="fill:#edd4ac"/><path d="M583.16,397.38h-93a0.87,0.87,0,0,0-1,.73V427.8a0.87,0.87,0,0,0,1,.73h93a0.87,0.87,0,0,0,1-.73V398.11a0.87,0.87,0,0,0-1-.73h0Z" style="fill:#edd4ac"/><path d="M1028.2,432.82h-93a0.87,0.87,0,0,0-1,.73v29.68a0.87,0.87,0,0,0,1,.73h93a0.87,0.87,0,0,0,1-.73V433.55a0.87,0.87,0,0,0-1-.73h0Z" style="fill:#edd4ac"/><path d="M929,432.82H836a0.87,0.87,0,0,0-1,.73v29.68a0.87,0.87,0,0,0,1,.73h93a0.87,0.87,0,0,0,1-.73V433.55a0.87,0.87,0,0,0-1-.73h0Z" style="fill:#f1ddbf"/><path d="M829.87,432.82h-93a0.87,0.87,0,0,0-1,.73v29.68a0.87,0.87,0,0,0,1,.73h93a0.87,0.87,0,0,0,1-.73V433.55a0.87,0.87,0,0,0-1-.73h0Z" style="fill:#edd4ac"/><path d="M730.7,432.82h-93a0.87,0.87,0,0,0-1,.73v29.68a0.87,0.87,0,0,0,1,.73h93a0.87,0.87,0,0,0,1-.73V433.55a0.87,0.87,0,0,0-1-.73h0Z" style="fill:#edd4ac"/><path d="M631.54,432.82h-93a0.87,0.87,0,0,0-1,.73v29.68a0.87,0.87,0,0,0,1,.73h93a0.87,0.87,0,0,0,1-.73V433.55a0.87,0.87,0,0,0-1-.73h0Z" style="fill:#edd4ac"/><path d="M532.37,432.82H489.08V464h43.29a0.87,0.87,0,0,0,1-.73V433.55a0.87,0.87,0,0,0-1-.73h0Z" style="fill:#edd4ac"/><path d="M979.82,468.31h-93a0.87,0.87,0,0,0-1,.73v29.68a0.87,0.87,0,0,0,1,.73h93a0.87,0.87,0,0,0,1-.73V469a0.87,0.87,0,0,0-1-.73h0Z" style="fill:#edd4ac"/><path d="M880.66,468.31h-93a0.87,0.87,0,0,0-1,.73v29.68a0.87,0.87,0,0,0,1,.73h93a0.87,0.87,0,0,0,1-.73V469a0.87,0.87,0,0,0-1-.73h0Z" style="fill:#edd4ac"/><path d="M781.49,468.31h-93a0.87,0.87,0,0,0-1,.73v29.68a0.87,0.87,0,0,0,1,.73h93a0.87,0.87,0,0,0,1-.73V469a0.87,0.87,0,0,0-1-.73h0Z" style="fill:#edd4ac"/><path d="M682.33,468.31h-93a0.87,0.87,0,0,0-1,.73v29.68a0.87,0.87,0,0,0,1,.73h93a0.87,0.87,0,0,0,1-.73V469a0.87,0.87,0,0,0-1-.73h0Z" style="fill:#edd4ac"/><path d="M583.16,468.31h-93a0.87,0.87,0,0,0-1,.73v29.68a0.87,0.87,0,0,0,1,.73h93a0.87,0.87,0,0,0,1-.73V469a0.87,0.87,0,0,0-1-.73h0Z" style="fill:#edd4ac"/><path d="M1028.2,503.74h-93a0.87,0.87,0,0,0-1,.73v29.68a0.87,0.87,0,0,0,1,.73h93a0.87,0.87,0,0,0,1-.73V504.47a0.87,0.87,0,0,0-1-.73h0Z" style="fill:#edd4ac"/><path d="M929,503.74H836a0.87,0.87,0,0,0-1,.73v29.68a0.87,0.87,0,0,0,1,.73h93a0.87,0.87,0,0,0,1-.73V504.47a0.87,0.87,0,0,0-1-.73h0Z" style="fill:#edd4ac"/><path d="M829.87,503.74h-93a0.87,0.87,0,0,0-1,.73v29.68a0.87,0.87,0,0,0,1,.73h93a0.87,0.87,0,0,0,1-.73V504.47a0.87,0.87,0,0,0-1-.73h0Z" style="fill:#edd4ac"/><path d="M730.7,503.74h-93a0.87,0.87,0,0,0-1,.73v29.68a0.87,0.87,0,0,0,1,.73h93a0.87,0.87,0,0,0,1-.73V504.47a0.87,0.87,0,0,0-1-.73h0Z" style="fill:#edd4ac"/><path d="M631.54,503.74h-93a0.87,0.87,0,0,0-1,.73v29.68a0.87,0.87,0,0,0,1,.73h93a0.87,0.87,0,0,0,1-.73V504.47a0.87,0.87,0,0,0-1-.73h0Z" style="fill:#f1ddbf"/><path d="M532.37,503.74H489.08v31.14h43.29a0.87,0.87,0,0,0,1-.73V504.47a0.87,0.87,0,0,0-1-.73h0Z" style="fill:#edd4ac"/><path d="M979.82,539.23h-93a0.87,0.87,0,0,0-1,.73v29.68a0.87,0.87,0,0,0,1,.73h93a0.87,0.87,0,0,0,1-.73V540a0.87,0.87,0,0,0-1-.73h0Z" style="fill:#f1ddbf"/><path d="M880.66,539.23h-93a0.87,0.87,0,0,0-1,.73v29.68a0.87,0.87,0,0,0,1,.73h93a0.87,0.87,0,0,0,1-.73V540a0.87,0.87,0,0,0-1-.73h0Z" style="fill:#edd4ac"/><path d="M781.49,539.23h-93a0.87,0.87,0,0,0-1,.73v29.68a0.87,0.87,0,0,0,1,.73h93a0.87,0.87,0,0,0,1-.73V540a0.87,0.87,0,0,0-1-.73h0Z" style="fill:#edd4ac"/><path d="M682.33,539.23h-93a0.87,0.87,0,0,0-1,.73v29.68a0.87,0.87,0,0,0,1,.73h93a0.87,0.87,0,0,0,1-.73V540a0.87,0.87,0,0,0-1-.73h0Z" style="fill:#edd4ac"/><path d="M583.16,539.23h-93a0.87,0.87,0,0,0-1,.73v29.68a0.87,0.87,0,0,0,1,.73h93a0.87,0.87,0,0,0,1-.73V540a0.87,0.87,0,0,0-1-.73h0Z" style="fill:#edd4ac"/><path d="M1028.2,574.67h-93a0.87,0.87,0,0,0-1,.73v29.68a0.87,0.87,0,0,0,1,.73h93a0.87,0.87,0,0,0,1-.73V575.4a0.87,0.87,0,0,0-1-.73h0Z" style="fill:#edd4ac"/><path d="M929,574.67H836a0.87,0.87,0,0,0-1,.73v29.68a0.87,0.87,0,0,0,1,.73h93a0.87,0.87,0,0,0,1-.73V575.4a0.87,0.87,0,0,0-1-.73h0Z" style="fill:#edd4ac"/><path d="M829.87,574.67h-93a0.87,0.87,0,0,0-1,.73v29.68a0.87,0.87,0,0,0,1,.73h93a0.87,0.87,0,0,0,1-.73V575.4a0.87,0.87,0,0,0-1-.73h0Z" style="fill:#edd4ac"/><path d="M730.7,574.67h-93a0.87,0.87,0,0,0-1,.73v29.68a0.87,0.87,0,0,0,1,.73h93a0.87,0.87,0,0,0,1-.73V575.4a0.87,0.87,0,0,0-1-.73h0Z" style="fill:#edd4ac"/><path d="M631.54,574.67h-93a0.87,0.87,0,0,0-1,.73v29.68a0.87,0.87,0,0,0,1,.73h93a0.87,0.87,0,0,0,1-.73V575.4a0.87,0.87,0,0,0-1-.73h0Z" style="fill:#edd4ac"/><path d="M532.37,574.67H489.08v31.14h43.29a0.87,0.87,0,0,0,1-.73V575.4a0.87,0.87,0,0,0-1-.73h0Z" style="fill:#f1ddbf"/><path d="M979.82,610.16h-93a0.87,0.87,0,0,0-1,.73v29.68a0.87,0.87,0,0,0,1,.73h93a0.87,0.87,0,0,0,1-.73V610.89a0.87,0.87,0,0,0-1-.73h0Z" style="fill:#f1ddbf"/><path d="M880.66,610.16h-93a0.87,0.87,0,0,0-1,.73v29.68a0.87,0.87,0,0,0,1,.73h93a0.87,0.87,0,0,0,1-.73V610.89a0.87,0.87,0,0,0-1-.73h0Z" style="fill:#edd4ac"/><path d="M781.49,610.16h-93a0.87,0.87,0,0,0-1,.73v29.68a0.87,0.87,0,0,0,1,.73h93a0.87,0.87,0,0,0,1-.73V610.89a0.87,0.87,0,0,0-1-.73h0Z" style="fill:#edd4ac"/><path d="M682.33,610.16h-93a0.87,0.87,0,0,0-1,.73v29.68a0.87,0.87,0,0,0,1,.73h93a0.87,0.87,0,0,0,1-.73V610.89a0.87,0.87,0,0,0-1-.73h0Z" style="fill:#edd4ac"/><path d="M583.16,610.16h-93a0.87,0.87,0,0,0-1,.73v29.68a0.87,0.87,0,0,0,1,.73h93a0.87,0.87,0,0,0,1-.73V610.89a0.87,0.87,0,0,0-1-.73h0Z" style="fill:#edd4ac"/><path d="M1028.2,645.59h-93a0.87,0.87,0,0,0-1,.73V676a0.87,0.87,0,0,0,1,.73h93a0.87,0.87,0,0,0,1-.73V646.33a0.87,0.87,0,0,0-1-.73h0Z" style="fill:#edd4ac"/><path d="M929,645.59H836a0.87,0.87,0,0,0-1,.73V676a0.87,0.87,0,0,0,1,.73h93a0.87,0.87,0,0,0,1-.73V646.33a0.87,0.87,0,0,0-1-.73h0Z" style="fill:#edd4ac"/><path d="M829.87,645.59h-93a0.87,0.87,0,0,0-1,.73V676a0.87,0.87,0,0,0,1,.73h93a0.87,0.87,0,0,0,1-.73V646.33a0.87,0.87,0,0,0-1-.73h0Z" style="fill:#edd4ac"/><path d="M730.7,645.59h-93a0.87,0.87,0,0,0-1,.73V676a0.87,0.87,0,0,0,1,.73h93a0.87,0.87,0,0,0,1-.73V646.33a0.87,0.87,0,0,0-1-.73h0Z" style="fill:#edd4ac"/><path d="M631.54,645.59h-93a0.87,0.87,0,0,0-1,.73V676a0.87,0.87,0,0,0,1,.73h93a0.87,0.87,0,0,0,1-.73V646.33a0.87,0.87,0,0,0-1-.73h0Z" style="fill:#edd4ac"/><path d="M532.37,645.59H489.08v31.14h43.29a0.87,0.87,0,0,0,1-.73V646.33a0.87,0.87,0,0,0-1-.73h0Z" style="fill:#edd4ac"/><path d="M979.82,681.09h-93a0.87,0.87,0,0,0-1,.73V711.5a0.87,0.87,0,0,0,1,.73h93a0.87,0.87,0,0,0,1-.73V681.82a0.87,0.87,0,0,0-1-.73h0Z" style="fill:#edd4ac"/><path d="M880.66,681.09h-93a0.87,0.87,0,0,0-1,.73V711.5a0.87,0.87,0,0,0,1,.73h93a0.87,0.87,0,0,0,1-.73V681.82a0.87,0.87,0,0,0-1-.73h0Z" style="fill:#edd4ac"/><path d="M781.49,681.09h-93a0.87,0.87,0,0,0-1,.73V711.5a0.87,0.87,0,0,0,1,.73h93a0.87,0.87,0,0,0,1-.73V681.82a0.87,0.87,0,0,0-1-.73h0Z" style="fill:#edd4ac"/><path d="M682.58,681.32h-93a0.87,0.87,0,0,0-1,.73v29.68a0.87,0.87,0,0,0,1,.73h93a0.87,0.87,0,0,0,1-.73V682a0.87,0.87,0,0,0-1-.73h0Z" style="fill:#edd4ac"/><path d="M583.16,681.09h-93a0.87,0.87,0,0,0-1,.73V711.5a0.87,0.87,0,0,0,1,.73h93a0.87,0.87,0,0,0,1-.73V681.82a0.87,0.87,0,0,0-1-.73h0Z" style="fill:#edd4ac"/><path d="M1028.2,716.52h-93a0.87,0.87,0,0,0-1,.73v29.68a0.87,0.87,0,0,0,1,.73h93a0.87,0.87,0,0,0,1-.73V717.25a0.87,0.87,0,0,0-1-.73h0Z" style="fill:#edd4ac"/><path d="M929,716.52H836a0.87,0.87,0,0,0-1,.73v29.68a0.87,0.87,0,0,0,1,.73h93a0.87,0.87,0,0,0,1-.73V717.25a0.87,0.87,0,0,0-1-.73h0Z" style="fill:#f1ddbf"/><path d="M829.87,716.52h-93a0.87,0.87,0,0,0-1,.73v29.68a0.87,0.87,0,0,0,1,.73h93a0.87,0.87,0,0,0,1-.73V717.25a0.87,0.87,0,0,0-1-.73h0Z" style="fill:#edd4ac"/><path d="M730.7,716.52h-93a0.87,0.87,0,0,0-1,.73v29.68a0.87,0.87,0,0,0,1,.73h93a0.87,0.87,0,0,0,1-.73V717.25a0.87,0.87,0,0,0-1-.73h0Z" style="fill:#edd4ac"/><path d="M631.54,716.52h-93a0.87,0.87,0,0,0-1,.73v29.68a0.87,0.87,0,0,0,1,.73h93a0.87,0.87,0,0,0,1-.73V717.25a0.87,0.87,0,0,0-1-.73h0Z" style="fill:#edd4ac"/><path d="M532.37,716.52H489.08v31.14h43.29a0.87,0.87,0,0,0,1-.73V717.25a0.87,0.87,0,0,0-1-.73h0Z" style="fill:#f1ddbf"/><path d="M979.82,752h-93a0.87,0.87,0,0,0-1,.73v29.68a0.87,0.87,0,0,0,1,.73h93a0.87,0.87,0,0,0,1-.73V752.74a0.87,0.87,0,0,0-1-.73h0Z" style="fill:#edd4ac"/><path d="M880.66,752h-93a0.87,0.87,0,0,0-1,.73v29.68a0.87,0.87,0,0,0,1,.73h93a0.87,0.87,0,0,0,1-.73V752.74a0.87,0.87,0,0,0-1-.73h0Z" style="fill:#edd4ac"/><path d="M781.49,752h-93a0.87,0.87,0,0,0-1,.73v29.68a0.87,0.87,0,0,0,1,.73h93a0.87,0.87,0,0,0,1-.73V752.74a0.87,0.87,0,0,0-1-.73h0Z" style="fill:#f1ddbf"/><path d="M682.33,752h-93a0.87,0.87,0,0,0-1,.73v29.68a0.87,0.87,0,0,0,1,.73h93a0.87,0.87,0,0,0,1-.73V752.74a0.87,0.87,0,0,0-1-.73h0Z" style="fill:#edd4ac"/><path d="M583.16,752h-93a0.87,0.87,0,0,0-1,.73v29.68a0.87,0.87,0,0,0,1,.73h93a0.87,0.87,0,0,0,1-.73V752.74a0.87,0.87,0,0,0-1-.73h0Z" style="fill:#edd4ac"/><path d="M1028.2,787.45h-93a0.87,0.87,0,0,0-1,.73v29.68a0.87,0.87,0,0,0,1,.73h93a0.87,0.87,0,0,0,1-.73V788.18a0.87,0.87,0,0,0-1-.73h0Z" style="fill:#edd4ac"/><path d="M929,787.45H836a0.87,0.87,0,0,0-1,.73v29.68a0.87,0.87,0,0,0,1,.73h93a0.87,0.87,0,0,0,1-.73V788.18a0.87,0.87,0,0,0-1-.73h0Z" style="fill:#edd4ac"/><path d="M829.87,787.45h-93a0.87,0.87,0,0,0-1,.73v29.68a0.87,0.87,0,0,0,1,.73h93a0.87,0.87,0,0,0,1-.73V788.18a0.87,0.87,0,0,0-1-.73h0Z" style="fill:#edd4ac"/><path d="M730.7,787.45h-93a0.87,0.87,0,0,0-1,.73v29.68a0.87,0.87,0,0,0,1,.73h93a0.87,0.87,0,0,0,1-.73V788.18a0.87,0.87,0,0,0-1-.73h0Z" style="fill:#edd4ac"/><path d="M631.54,787.45h-93a0.87,0.87,0,0,0-1,.73v29.68a0.87,0.87,0,0,0,1,.73h93a0.87,0.87,0,0,0,1-.73V788.18a0.87,0.87,0,0,0-1-.73h0Z" style="fill:#f1ddbf"/><path d="M532.37,787.45H489.08v31.14h43.29a0.87,0.87,0,0,0,1-.73V788.18a0.87,0.87,0,0,0-1-.73h0Z" style="fill:#edd4ac"/><polygon points="-101.96 -27.52 489.08 -27.52 489.08 818.59 -101.96 818.59 -101.96 -27.52 -101.96 -27.52" style="fill:#d9b685"/><path d="M-1.66-28.17h93a0.87,0.87,0,0,1,1,.73V2.24a0.87,0.87,0,0,1-1,.73h-93a0.87,0.87,0,0,1-1-.73V-27.44a0.87,0.87,0,0,1,1-.73h0Z" style="fill:#f1ddbf"/><path d="M97.5-28.17h93a0.87,0.87,0,0,1,1,.73V2.24a0.87,0.87,0,0,1-1,.73h-93a0.87,0.87,0,0,1-1-.73V-27.44a0.87,0.87,0,0,1,1-.73h0Z" style="fill:#edd4ac"/><path d="M196.67-28.17h93a0.87,0.87,0,0,1,1,.73V2.24a0.87,0.87,0,0,1-1,.73h-93a0.87,0.87,0,0,1-1-.73V-27.44a0.87,0.87,0,0,1,1-.73h0Z" style="fill:#edd4ac"/><path d="M295.83-28.17h93a0.87,0.87,0,0,1,1,.73V2.24a0.87,0.87,0,0,1-1,.73h-93a0.87,0.87,0,0,1-1-.73V-27.44a0.87,0.87,0,0,1,1-.73h0Z" style="fill:#f1ddbf"/><path d="M395-28.17h93a0.87,0.87,0,0,1,1,.73V2.24A0.87,0.87,0,0,1,488,3H395a0.87,0.87,0,0,1-1-.73V-27.44a0.87,0.87,0,0,1,1-.73h0Z" style="fill:#edd4ac"/><path d="M-50,7.27H43a0.87,0.87,0,0,1,1,.73V37.68a0.87,0.87,0,0,1-1,.73H-50a0.87,0.87,0,0,1-1-.73V8a0.87,0.87,0,0,1,1-.73h0Z" style="fill:#edd4ac"/><path d="M49.13,7.27h93a0.87,0.87,0,0,1,1,.73V37.68a0.87,0.87,0,0,1-1,.73h-93a0.87,0.87,0,0,1-1-.73V8a0.87,0.87,0,0,1,1-.73h0Z" style="fill:#edd4ac"/><path d="M148.3,7.27h93a0.87,0.87,0,0,1,1,.73V37.68a0.87,0.87,0,0,1-1,.73h-93a0.87,0.87,0,0,1-1-.73V8a0.87,0.87,0,0,1,1-.73h0Z" style="fill:#edd4ac"/><path d="M247.46,7.27h93a0.87,0.87,0,0,1,1,.73V37.68a0.87,0.87,0,0,1-1,.73h-93a0.87,0.87,0,0,1-1-.73V8a0.87,0.87,0,0,1,1-.73h0Z" style="fill:#edd4ac"/><path d="M346.63,7.27h93a0.87,0.87,0,0,1,1,.73V37.68a0.87,0.87,0,0,1-1,.73h-93a0.87,0.87,0,0,1-1-.73V8a0.87,0.87,0,0,1,1-.73h0Z" style="fill:#edd4ac"/><path d="M445.79,7.27h43.29V38.41H445.79a0.87,0.87,0,0,1-1-.73V8a0.87,0.87,0,0,1,1-.73h0Z" style="fill:#edd4ac"/><path d="M-1.66,42.76h93a0.87,0.87,0,0,1,1,.73V73.17a0.87,0.87,0,0,1-1,.73h-93a0.87,0.87,0,0,1-1-.73V43.49a0.87,0.87,0,0,1,1-.73h0Z" style="fill:#edd4ac"/><path d="M97.5,42.76h93a0.87,0.87,0,0,1,1,.73V73.17a0.87,0.87,0,0,1-1,.73h-93a0.87,0.87,0,0,1-1-.73V43.49a0.87,0.87,0,0,1,1-.73h0Z" style="fill:#edd4ac"/><path d="M196.67,42.76h93a0.87,0.87,0,0,1,1,.73V73.17a0.87,0.87,0,0,1-1,.73h-93a0.87,0.87,0,0,1-1-.73V43.49a0.87,0.87,0,0,1,1-.73h0Z" style="fill:#edd4ac"/><path d="M295.83,42.76h93a0.87,0.87,0,0,1,1,.73V73.17a0.87,0.87,0,0,1-1,.73h-93a0.87,0.87,0,0,1-1-.73V43.49a0.87,0.87,0,0,1,1-.73h0Z" style="fill:#edd4ac"/><path d="M395,42.76h93a0.87,0.87,0,0,1,1,.73V73.17a0.87,0.87,0,0,1-1,.73H395a0.87,0.87,0,0,1-1-.73V43.49a0.87,0.87,0,0,1,1-.73h0Z" style="fill:#edd4ac"/><path d="M-50,78.19H43a0.87,0.87,0,0,1,1,.73V108.6a0.87,0.87,0,0,1-1,.73H-50a0.87,0.87,0,0,1-1-.73V78.92a0.87,0.87,0,0,1,1-.73h0Z" style="fill:#edd4ac"/><path d="M49.13,78.19h93a0.87,0.87,0,0,1,1,.73V108.6a0.87,0.87,0,0,1-1,.73h-93a0.87,0.87,0,0,1-1-.73V78.92a0.87,0.87,0,0,1,1-.73h0Z" style="fill:#edd4ac"/><path d="M148.3,78.19h93a0.87,0.87,0,0,1,1,.73V108.6a0.87,0.87,0,0,1-1,.73h-93a0.87,0.87,0,0,1-1-.73V78.92a0.87,0.87,0,0,1,1-.73h0Z" style="fill:#f1ddbf"/><path d="M247.46,78.19h93a0.87,0.87,0,0,1,1,.73V108.6a0.87,0.87,0,0,1-1,.73h-93a0.87,0.87,0,0,1-1-.73V78.92a0.87,0.87,0,0,1,1-.73h0Z" style="fill:#edd4ac"/><path d="M346.63,78.19h93a0.87,0.87,0,0,1,1,.73V108.6a0.87,0.87,0,0,1-1,.73h-93a0.87,0.87,0,0,1-1-.73V78.92a0.87,0.87,0,0,1,1-.73h0Z" style="fill:#f1ddbf"/><path d="M445.79,78.19h43.29v31.14H445.79a0.87,0.87,0,0,1-1-.73V78.92a0.87,0.87,0,0,1,1-.73h0Z" style="fill:#f1ddbf"/><path d="M-1.66,113.68h93a0.87,0.87,0,0,1,1,.73V144.1a0.87,0.87,0,0,1-1,.73h-93a0.87,0.87,0,0,1-1-.73V114.41a0.87,0.87,0,0,1,1-.73h0Z" style="fill:#edd4ac"/><path d="M97.5,113.68h93a0.87,0.87,0,0,1,1,.73V144.1a0.87,0.87,0,0,1-1,.73h-93a0.87,0.87,0,0,1-1-.73V114.41a0.87,0.87,0,0,1,1-.73h0Z" style="fill:#edd4ac"/><path d="M196.67,113.68h93a0.87,0.87,0,0,1,1,.73V144.1a0.87,0.87,0,0,1-1,.73h-93a0.87,0.87,0,0,1-1-.73V114.41a0.87,0.87,0,0,1,1-.73h0Z" style="fill:#edd4ac"/><path d="M295.83,113.68h93a0.87,0.87,0,0,1,1,.73V144.1a0.87,0.87,0,0,1-1,.73h-93a0.87,0.87,0,0,1-1-.73V114.41a0.87,0.87,0,0,1,1-.73h0Z" style="fill:#edd4ac"/><path d="M395,113.68h93a0.87,0.87,0,0,1,1,.73V144.1a0.87,0.87,0,0,1-1,.73H395a0.87,0.87,0,0,1-1-.73V114.41a0.87,0.87,0,0,1,1-.73h0Z" style="fill:#edd4ac"/><path d="M-50,149.12H43a0.87,0.87,0,0,1,1,.73v29.68a0.87,0.87,0,0,1-1,.73H-50a0.87,0.87,0,0,1-1-.73V149.85a0.87,0.87,0,0,1,1-.73h0Z" style="fill:#edd4ac"/><path d="M49.13,149.12h93a0.87,0.87,0,0,1,1,.73v29.68a0.87,0.87,0,0,1-1,.73h-93a0.87,0.87,0,0,1-1-.73V149.85a0.87,0.87,0,0,1,1-.73h0Z" style="fill:#f1ddbf"/><path d="M148.3,149.12h93a0.87,0.87,0,0,1,1,.73v29.68a0.87,0.87,0,0,1-1,.73h-93a0.87,0.87,0,0,1-1-.73V149.85a0.87,0.87,0,0,1,1-.73h0Z" style="fill:#edd4ac"/><path d="M247.46,149.12h93a0.87,0.87,0,0,1,1,.73v29.68a0.87,0.87,0,0,1-1,.73h-93a0.87,0.87,0,0,1-1-.73V149.85a0.87,0.87,0,0,1,1-.73h0Z" style="fill:#edd4ac"/><path d="M346.63,149.12h93a0.87,0.87,0,0,1,1,.73v29.68a0.87,0.87,0,0,1-1,.73h-93a0.87,0.87,0,0,1-1-.73V149.85a0.87,0.87,0,0,1,1-.73h0Z" style="fill:#edd4ac"/><path d="M445.79,149.12h43.29v31.14H445.79a0.87,0.87,0,0,1-1-.73V149.85a0.87,0.87,0,0,1,1-.73h0Z" style="fill:#edd4ac"/><path d="M-1.66,184.61h93a0.87,0.87,0,0,1,1,.73V215a0.87,0.87,0,0,1-1,.73h-93a0.87,0.87,0,0,1-1-.73V185.34a0.87,0.87,0,0,1,1-.73h0Z" style="fill:#edd4ac"/><path d="M97.5,184.61h93a0.87,0.87,0,0,1,1,.73V215a0.87,0.87,0,0,1-1,.73h-93a0.87,0.87,0,0,1-1-.73V185.34a0.87,0.87,0,0,1,1-.73h0Z" style="fill:#edd4ac"/><path d="M196.67,184.61h93a0.87,0.87,0,0,1,1,.73V215a0.87,0.87,0,0,1-1,.73h-93a0.87,0.87,0,0,1-1-.73V185.34a0.87,0.87,0,0,1,1-.73h0Z" style="fill:#edd4ac"/><path d="M295.83,184.61h93a0.87,0.87,0,0,1,1,.73V215a0.87,0.87,0,0,1-1,.73h-93a0.87,0.87,0,0,1-1-.73V185.34a0.87,0.87,0,0,1,1-.73h0Z" style="fill:#f1ddbf"/><path d="M395,184.61h93a0.87,0.87,0,0,1,1,.73V215a0.87,0.87,0,0,1-1,.73H395a0.87,0.87,0,0,1-1-.73V185.34a0.87,0.87,0,0,1,1-.73h0Z" style="fill:#edd4ac"/><path d="M-50,220H43a0.87,0.87,0,0,1,1,.73v29.68a0.87,0.87,0,0,1-1,.73H-50a0.87,0.87,0,0,1-1-.73V220.77a0.87,0.87,0,0,1,1-.73h0Z" style="fill:#edd4ac"/><path d="M49.13,220h93a0.87,0.87,0,0,1,1,.73v29.68a0.87,0.87,0,0,1-1,.73h-93a0.87,0.87,0,0,1-1-.73V220.77a0.87,0.87,0,0,1,1-.73h0Z" style="fill:#edd4ac"/><path d="M148.3,220h93a0.87,0.87,0,0,1,1,.73v29.68a0.87,0.87,0,0,1-1,.73h-93a0.87,0.87,0,0,1-1-.73V220.77a0.87,0.87,0,0,1,1-.73h0Z" style="fill:#f1ddbf"/><path d="M247.46,220h93a0.87,0.87,0,0,1,1,.73v29.68a0.87,0.87,0,0,1-1,.73h-93a0.87,0.87,0,0,1-1-.73V220.77a0.87,0.87,0,0,1,1-.73h0Z" style="fill:#edd4ac"/><path d="M346.63,220h93a0.87,0.87,0,0,1,1,.73v29.68a0.87,0.87,0,0,1-1,.73h-93a0.87,0.87,0,0,1-1-.73V220.77a0.87,0.87,0,0,1,1-.73h0Z" style="fill:#edd4ac"/><path d="M445.79,220h43.29v31.14H445.79a0.87,0.87,0,0,1-1-.73V220.77a0.87,0.87,0,0,1,1-.73h0Z" style="fill:#edd4ac"/><path d="M-1.66,255.53h93a0.87,0.87,0,0,1,1,.73v29.68a0.87,0.87,0,0,1-1,.73h-93a0.87,0.87,0,0,1-1-.73V256.26a0.87,0.87,0,0,1,1-.73h0Z" style="fill:#edd4ac"/><path d="M97.5,255.53h93a0.87,0.87,0,0,1,1,.73v29.68a0.87,0.87,0,0,1-1,.73h-93a0.87,0.87,0,0,1-1-.73V256.26a0.87,0.87,0,0,1,1-.73h0Z" style="fill:#edd4ac"/><path d="M196.67,255.53h93a0.87,0.87,0,0,1,1,.73v29.68a0.87,0.87,0,0,1-1,.73h-93a0.87,0.87,0,0,1-1-.73V256.26a0.87,0.87,0,0,1,1-.73h0Z" style="fill:#edd4ac"/><path d="M295.83,255.53h93a0.87,0.87,0,0,1,1,.73v29.68a0.87,0.87,0,0,1-1,.73h-93a0.87,0.87,0,0,1-1-.73V256.26a0.87,0.87,0,0,1,1-.73h0Z" style="fill:#edd4ac"/><path d="M395,255.53h93a0.87,0.87,0,0,1,1,.73v29.68a0.87,0.87,0,0,1-1,.73H395a0.87,0.87,0,0,1-1-.73V256.26a0.87,0.87,0,0,1,1-.73h0Z" style="fill:#edd4ac"/><path d="M-50,291H43a0.87,0.87,0,0,1,1,.73v29.68a0.87,0.87,0,0,1-1,.73H-50a0.87,0.87,0,0,1-1-.73V291.7a0.87,0.87,0,0,1,1-.73h0Z" style="fill:#edd4ac"/><path d="M49.13,291h93a0.87,0.87,0,0,1,1,.73v29.68a0.87,0.87,0,0,1-1,.73h-93a0.87,0.87,0,0,1-1-.73V291.7a0.87,0.87,0,0,1,1-.73h0Z" style="fill:#edd4ac"/><path d="M148.3,291h93a0.87,0.87,0,0,1,1,.73v29.68a0.87,0.87,0,0,1-1,.73h-93a0.87,0.87,0,0,1-1-.73V291.7a0.87,0.87,0,0,1,1-.73h0Z" style="fill:#edd4ac"/><path d="M247.46,291h93a0.87,0.87,0,0,1,1,.73v29.68a0.87,0.87,0,0,1-1,.73h-93a0.87,0.87,0,0,1-1-.73V291.7a0.87,0.87,0,0,1,1-.73h0Z" style="fill:#edd4ac"/><path d="M346.63,291h93a0.87,0.87,0,0,1,1,.73v29.68a0.87,0.87,0,0,1-1,.73h-93a0.87,0.87,0,0,1-1-.73V291.7a0.87,0.87,0,0,1,1-.73h0Z" style="fill:#edd4ac"/><path d="M445.79,291h43.29v31.14H445.79a0.87,0.87,0,0,1-1-.73V291.7a0.87,0.87,0,0,1,1-.73h0Z" style="fill:#f1ddbf"/><path d="M-1.66,326.46h93a0.87,0.87,0,0,1,1,.73v29.68a0.87,0.87,0,0,1-1,.73h-93a0.87,0.87,0,0,1-1-.73V327.19a0.87,0.87,0,0,1,1-.73h0Z" style="fill:#edd4ac"/><path d="M97.5,326.46h93a0.87,0.87,0,0,1,1,.73v29.68a0.87,0.87,0,0,1-1,.73h-93a0.87,0.87,0,0,1-1-.73V327.19a0.87,0.87,0,0,1,1-.73h0Z" style="fill:#edd4ac"/><path d="M196.67,326.46h93a0.87,0.87,0,0,1,1,.73v29.68a0.87,0.87,0,0,1-1,.73h-93a0.87,0.87,0,0,1-1-.73V327.19a0.87,0.87,0,0,1,1-.73h0Z" style="fill:#f1ddbf"/><path d="M295.83,326.46h93a0.87,0.87,0,0,1,1,.73v29.68a0.87,0.87,0,0,1-1,.73h-93a0.87,0.87,0,0,1-1-.73V327.19a0.87,0.87,0,0,1,1-.73h0Z" style="fill:#edd4ac"/><path d="M395,326.46h93a0.87,0.87,0,0,1,1,.73v29.68a0.87,0.87,0,0,1-1,.73H395a0.87,0.87,0,0,1-1-.73V327.19a0.87,0.87,0,0,1,1-.73h0Z" style="fill:#edd4ac"/><path d="M-50,361.89H43a0.87,0.87,0,0,1,1,.73v29.68a0.87,0.87,0,0,1-1,.73H-50a0.87,0.87,0,0,1-1-.73V362.62a0.87,0.87,0,0,1,1-.73h0Z" style="fill:#f1ddbf"/><path d="M49.13,361.89h93a0.87,0.87,0,0,1,1,.73v29.68a0.87,0.87,0,0,1-1,.73h-93a0.87,0.87,0,0,1-1-.73V362.62a0.87,0.87,0,0,1,1-.73h0Z" style="fill:#edd4ac"/><path d="M148.3,361.89h93a0.87,0.87,0,0,1,1,.73v29.68a0.87,0.87,0,0,1-1,.73h-93a0.87,0.87,0,0,1-1-.73V362.62a0.87,0.87,0,0,1,1-.73h0Z" style="fill:#edd4ac"/><path d="M247.46,361.89h93a0.87,0.87,0,0,1,1,.73v29.68a0.87,0.87,0,0,1-1,.73h-93a0.87,0.87,0,0,1-1-.73V362.62a0.87,0.87,0,0,1,1-.73h0Z" style="fill:#edd4ac"/><path d="M346.63,361.89h93a0.87,0.87,0,0,1,1,.73v29.68a0.87,0.87,0,0,1-1,.73h-93a0.87,0.87,0,0,1-1-.73V362.62a0.87,0.87,0,0,1,1-.73h0Z" style="fill:#edd4ac"/><path d="M445.79,361.89h43.29V393H445.79a0.87,0.87,0,0,1-1-.73V362.62a0.87,0.87,0,0,1,1-.73h0Z" style="fill:#edd4ac"/><path d="M-1.66,397.38h93a0.87,0.87,0,0,1,1,.73V427.8a0.87,0.87,0,0,1-1,.73h-93a0.87,0.87,0,0,1-1-.73V398.11a0.87,0.87,0,0,1,1-.73h0Z" style="fill:#edd4ac"/><path d="M97.5,397.38h93a0.87,0.87,0,0,1,1,.73V427.8a0.87,0.87,0,0,1-1,.73h-93a0.87,0.87,0,0,1-1-.73V398.11a0.87,0.87,0,0,1,1-.73h0Z" style="fill:#edd4ac"/><path d="M196.67,397.38h93a0.87,0.87,0,0,1,1,.73V427.8a0.87,0.87,0,0,1-1,.73h-93a0.87,0.87,0,0,1-1-.73V398.11a0.87,0.87,0,0,1,1-.73h0Z" style="fill:#edd4ac"/><path d="M295.83,397.38h93a0.87,0.87,0,0,1,1,.73V427.8a0.87,0.87,0,0,1-1,.73h-93a0.87,0.87,0,0,1-1-.73V398.11a0.87,0.87,0,0,1,1-.73h0Z" style="fill:#edd4ac"/><path d="M395,397.38h93a0.87,0.87,0,0,1,1,.73V427.8a0.87,0.87,0,0,1-1,.73H395a0.87,0.87,0,0,1-1-.73V398.11a0.87,0.87,0,0,1,1-.73h0Z" style="fill:#edd4ac"/><path d="M-50,432.82H43a0.87,0.87,0,0,1,1,.73v29.68a0.87,0.87,0,0,1-1,.73H-50a0.87,0.87,0,0,1-1-.73V433.55a0.87,0.87,0,0,1,1-.73h0Z" style="fill:#edd4ac"/><path d="M49.13,432.82h93a0.87,0.87,0,0,1,1,.73v29.68a0.87,0.87,0,0,1-1,.73h-93a0.87,0.87,0,0,1-1-.73V433.55a0.87,0.87,0,0,1,1-.73h0Z" style="fill:#f1ddbf"/><path d="M148.3,432.82h93a0.87,0.87,0,0,1,1,.73v29.68a0.87,0.87,0,0,1-1,.73h-93a0.87,0.87,0,0,1-1-.73V433.55a0.87,0.87,0,0,1,1-.73h0Z" style="fill:#edd4ac"/><path d="M247.46,432.82h93a0.87,0.87,0,0,1,1,.73v29.68a0.87,0.87,0,0,1-1,.73h-93a0.87,0.87,0,0,1-1-.73V433.55a0.87,0.87,0,0,1,1-.73h0Z" style="fill:#edd4ac"/><path d="M346.63,432.82h93a0.87,0.87,0,0,1,1,.73v29.68a0.87,0.87,0,0,1-1,.73h-93a0.87,0.87,0,0,1-1-.73V433.55a0.87,0.87,0,0,1,1-.73h0Z" style="fill:#edd4ac"/><path d="M445.79,432.82h43.29V464H445.79a0.87,0.87,0,0,1-1-.73V433.55a0.87,0.87,0,0,1,1-.73h0Z" style="fill:#edd4ac"/><path d="M-1.66,468.31h93a0.87,0.87,0,0,1,1,.73v29.68a0.87,0.87,0,0,1-1,.73h-93a0.87,0.87,0,0,1-1-.73V469a0.87,0.87,0,0,1,1-.73h0Z" style="fill:#edd4ac"/><path d="M97.5,468.31h93a0.87,0.87,0,0,1,1,.73v29.68a0.87,0.87,0,0,1-1,.73h-93a0.87,0.87,0,0,1-1-.73V469a0.87,0.87,0,0,1,1-.73h0Z" style="fill:#edd4ac"/><path d="M196.67,468.31h93a0.87,0.87,0,0,1,1,.73v29.68a0.87,0.87,0,0,1-1,.73h-93a0.87,0.87,0,0,1-1-.73V469a0.87,0.87,0,0,1,1-.73h0Z" style="fill:#edd4ac"/><path d="M295.83,468.31h93a0.87,0.87,0,0,1,1,.73v29.68a0.87,0.87,0,0,1-1,.73h-93a0.87,0.87,0,0,1-1-.73V469a0.87,0.87,0,0,1,1-.73h0Z" style="fill:#edd4ac"/><path d="M395,468.31h93a0.87,0.87,0,0,1,1,.73v29.68a0.87,0.87,0,0,1-1,.73H395a0.87,0.87,0,0,1-1-.73V469a0.87,0.87,0,0,1,1-.73h0Z" style="fill:#edd4ac"/><path d="M-50,503.74H43a0.87,0.87,0,0,1,1,.73v29.68a0.87,0.87,0,0,1-1,.73H-50a0.87,0.87,0,0,1-1-.73V504.47a0.87,0.87,0,0,1,1-.73h0Z" style="fill:#edd4ac"/><path d="M49.13,503.74h93a0.87,0.87,0,0,1,1,.73v29.68a0.87,0.87,0,0,1-1,.73h-93a0.87,0.87,0,0,1-1-.73V504.47a0.87,0.87,0,0,1,1-.73h0Z" style="fill:#edd4ac"/><path d="M148.3,503.74h93a0.87,0.87,0,0,1,1,.73v29.68a0.87,0.87,0,0,1-1,.73h-93a0.87,0.87,0,0,1-1-.73V504.47a0.87,0.87,0,0,1,1-.73h0Z" style="fill:#edd4ac"/><path d="M247.46,503.74h93a0.87,0.87,0,0,1,1,.73v29.68a0.87,0.87,0,0,1-1,.73h-93a0.87,0.87,0,0,1-1-.73V504.47a0.87,0.87,0,0,1,1-.73h0Z" style="fill:#edd4ac"/><path d="M346.63,503.74h93a0.87,0.87,0,0,1,1,.73v29.68a0.87,0.87,0,0,1-1,.73h-93a0.87,0.87,0,0,1-1-.73V504.47a0.87,0.87,0,0,1,1-.73h0Z" style="fill:#f1ddbf"/><path d="M445.79,503.74h43.29v31.14H445.79a0.87,0.87,0,0,1-1-.73V504.47a0.87,0.87,0,0,1,1-.73h0Z" style="fill:#edd4ac"/><path d="M-1.66,539.23h93a0.87,0.87,0,0,1,1,.73v29.68a0.87,0.87,0,0,1-1,.73h-93a0.87,0.87,0,0,1-1-.73V540a0.87,0.87,0,0,1,1-.73h0Z" style="fill:#f1ddbf"/><path d="M97.5,539.23h93a0.87,0.87,0,0,1,1,.73v29.68a0.87,0.87,0,0,1-1,.73h-93a0.87,0.87,0,0,1-1-.73V540a0.87,0.87,0,0,1,1-.73h0Z" style="fill:#edd4ac"/><path d="M196.67,539.23h93a0.87,0.87,0,0,1,1,.73v29.68a0.87,0.87,0,0,1-1,.73h-93a0.87,0.87,0,0,1-1-.73V540a0.87,0.87,0,0,1,1-.73h0Z" style="fill:#edd4ac"/><path d="M295.83,539.23h93a0.87,0.87,0,0,1,1,.73v29.68a0.87,0.87,0,0,1-1,.73h-93a0.87,0.87,0,0,1-1-.73V540a0.87,0.87,0,0,1,1-.73h0Z" style="fill:#edd4ac"/><path d="M395,539.23h93a0.87,0.87,0,0,1,1,.73v29.68a0.87,0.87,0,0,1-1,.73H395a0.87,0.87,0,0,1-1-.73V540a0.87,0.87,0,0,1,1-.73h0Z" style="fill:#edd4ac"/><path d="M-50,574.67H43a0.87,0.87,0,0,1,1,.73v29.68a0.87,0.87,0,0,1-1,.73H-50a0.87,0.87,0,0,1-1-.73V575.4a0.87,0.87,0,0,1,1-.73h0Z" style="fill:#edd4ac"/><path d="M49.13,574.67h93a0.87,0.87,0,0,1,1,.73v29.68a0.87,0.87,0,0,1-1,.73h-93a0.87,0.87,0,0,1-1-.73V575.4a0.87,0.87,0,0,1,1-.73h0Z" style="fill:#edd4ac"/><path d="M148.3,574.67h93a0.87,0.87,0,0,1,1,.73v29.68a0.87,0.87,0,0,1-1,.73h-93a0.87,0.87,0,0,1-1-.73V575.4a0.87,0.87,0,0,1,1-.73h0Z" style="fill:#edd4ac"/><path d="M247.46,574.67h93a0.87,0.87,0,0,1,1,.73v29.68a0.87,0.87,0,0,1-1,.73h-93a0.87,0.87,0,0,1-1-.73V575.4a0.87,0.87,0,0,1,1-.73h0Z" style="fill:#edd4ac"/><path d="M346.63,574.67h93a0.87,0.87,0,0,1,1,.73v29.68a0.87,0.87,0,0,1-1,.73h-93a0.87,0.87,0,0,1-1-.73V575.4a0.87,0.87,0,0,1,1-.73h0Z" style="fill:#edd4ac"/><path d="M445.79,574.67h43.29v31.14H445.79a0.87,0.87,0,0,1-1-.73V575.4a0.87,0.87,0,0,1,1-.73h0Z" style="fill:#f1ddbf"/><path d="M-1.66,610.16h93a0.87,0.87,0,0,1,1,.73v29.68a0.87,0.87,0,0,1-1,.73h-93a0.87,0.87,0,0,1-1-.73V610.89a0.87,0.87,0,0,1,1-.73h0Z" style="fill:#f1ddbf"/><path d="M97.5,610.16h93a0.87,0.87,0,0,1,1,.73v29.68a0.87,0.87,0,0,1-1,.73h-93a0.87,0.87,0,0,1-1-.73V610.89a0.87,0.87,0,0,1,1-.73h0Z" style="fill:#edd4ac"/><path d="M196.67,610.16h93a0.87,0.87,0,0,1,1,.73v29.68a0.87,0.87,0,0,1-1,.73h-93a0.87,0.87,0,0,1-1-.73V610.89a0.87,0.87,0,0,1,1-.73h0Z" style="fill:#edd4ac"/><path d="M295.83,610.16h93a0.87,0.87,0,0,1,1,.73v29.68a0.87,0.87,0,0,1-1,.73h-93a0.87,0.87,0,0,1-1-.73V610.89a0.87,0.87,0,0,1,1-.73h0Z" style="fill:#edd4ac"/><path d="M395,610.16h93a0.87,0.87,0,0,1,1,.73v29.68a0.87,0.87,0,0,1-1,.73H395a0.87,0.87,0,0,1-1-.73V610.89a0.87,0.87,0,0,1,1-.73h0Z" style="fill:#edd4ac"/><path d="M-50,645.59H43a0.87,0.87,0,0,1,1,.73V676a0.87,0.87,0,0,1-1,.73H-50a0.87,0.87,0,0,1-1-.73V646.33a0.87,0.87,0,0,1,1-.73h0Z" style="fill:#edd4ac"/><path d="M49.13,645.59h93a0.87,0.87,0,0,1,1,.73V676a0.87,0.87,0,0,1-1,.73h-93a0.87,0.87,0,0,1-1-.73V646.33a0.87,0.87,0,0,1,1-.73h0Z" style="fill:#edd4ac"/><path d="M148.3,645.59h93a0.87,0.87,0,0,1,1,.73V676a0.87,0.87,0,0,1-1,.73h-93a0.87,0.87,0,0,1-1-.73V646.33a0.87,0.87,0,0,1,1-.73h0Z" style="fill:#edd4ac"/><path d="M247.46,645.59h93a0.87,0.87,0,0,1,1,.73V676a0.87,0.87,0,0,1-1,.73h-93a0.87,0.87,0,0,1-1-.73V646.33a0.87,0.87,0,0,1,1-.73h0Z" style="fill:#edd4ac"/><path d="M346.63,645.59h93a0.87,0.87,0,0,1,1,.73V676a0.87,0.87,0,0,1-1,.73h-93a0.87,0.87,0,0,1-1-.73V646.33a0.87,0.87,0,0,1,1-.73h0Z" style="fill:#edd4ac"/><path d="M445.79,645.59h43.29v31.14H445.79a0.87,0.87,0,0,1-1-.73V646.33a0.87,0.87,0,0,1,1-.73h0Z" style="fill:#edd4ac"/><path d="M-1.66,681.09h93a0.87,0.87,0,0,1,1,.73V711.5a0.87,0.87,0,0,1-1,.73h-93a0.87,0.87,0,0,1-1-.73V681.82a0.87,0.87,0,0,1,1-.73h0Z" style="fill:#edd4ac"/><path d="M97.5,681.09h93a0.87,0.87,0,0,1,1,.73V711.5a0.87,0.87,0,0,1-1,.73h-93a0.87,0.87,0,0,1-1-.73V681.82a0.87,0.87,0,0,1,1-.73h0Z" style="fill:#edd4ac"/><path d="M196.67,681.09h93a0.87,0.87,0,0,1,1,.73V711.5a0.87,0.87,0,0,1-1,.73h-93a0.87,0.87,0,0,1-1-.73V681.82a0.87,0.87,0,0,1,1-.73h0Z" style="fill:#edd4ac"/><path d="M295.58,681.32h93a0.87,0.87,0,0,1,1,.73v29.68a0.87,0.87,0,0,1-1,.73h-93a0.87,0.87,0,0,1-1-.73V682a0.87,0.87,0,0,1,1-.73h0Z" style="fill:#edd4ac"/><path d="M395,681.09h93a0.87,0.87,0,0,1,1,.73V711.5a0.87,0.87,0,0,1-1,.73H395a0.87,0.87,0,0,1-1-.73V681.82a0.87,0.87,0,0,1,1-.73h0Z" style="fill:#edd4ac"/><path d="M-50,716.52H43a0.87,0.87,0,0,1,1,.73v29.68a0.87,0.87,0,0,1-1,.73H-50a0.87,0.87,0,0,1-1-.73V717.25a0.87,0.87,0,0,1,1-.73h0Z" style="fill:#edd4ac"/><path d="M49.13,716.52h93a0.87,0.87,0,0,1,1,.73v29.68a0.87,0.87,0,0,1-1,.73h-93a0.87,0.87,0,0,1-1-.73V717.25a0.87,0.87,0,0,1,1-.73h0Z" style="fill:#f1ddbf"/><path d="M148.3,716.52h93a0.87,0.87,0,0,1,1,.73v29.68a0.87,0.87,0,0,1-1,.73h-93a0.87,0.87,0,0,1-1-.73V717.25a0.87,0.87,0,0,1,1-.73h0Z" style="fill:#edd4ac"/><path d="M247.46,716.52h93a0.87,0.87,0,0,1,1,.73v29.68a0.87,0.87,0,0,1-1,.73h-93a0.87,0.87,0,0,1-1-.73V717.25a0.87,0.87,0,0,1,1-.73h0Z" style="fill:#edd4ac"/><path d="M346.63,716.52h93a0.87,0.87,0,0,1,1,.73v29.68a0.87,0.87,0,0,1-1,.73h-93a0.87,0.87,0,0,1-1-.73V717.25a0.87,0.87,0,0,1,1-.73h0Z" style="fill:#edd4ac"/><path d="M445.79,716.52h43.29v31.14H445.79a0.87,0.87,0,0,1-1-.73V717.25a0.87,0.87,0,0,1,1-.73h0Z" style="fill:#f1ddbf"/><path d="M-1.66,752h93a0.87,0.87,0,0,1,1,.73v29.68a0.87,0.87,0,0,1-1,.73h-93a0.87,0.87,0,0,1-1-.73V752.74a0.87,0.87,0,0,1,1-.73h0Z" style="fill:#edd4ac"/><path d="M97.5,752h93a0.87,0.87,0,0,1,1,.73v29.68a0.87,0.87,0,0,1-1,.73h-93a0.87,0.87,0,0,1-1-.73V752.74a0.87,0.87,0,0,1,1-.73h0Z" style="fill:#edd4ac"/><path d="M196.67,752h93a0.87,0.87,0,0,1,1,.73v29.68a0.87,0.87,0,0,1-1,.73h-93a0.87,0.87,0,0,1-1-.73V752.74a0.87,0.87,0,0,1,1-.73h0Z" style="fill:#f1ddbf"/><path d="M295.83,752h93a0.87,0.87,0,0,1,1,.73v29.68a0.87,0.87,0,0,1-1,.73h-93a0.87,0.87,0,0,1-1-.73V752.74a0.87,0.87,0,0,1,1-.73h0Z" style="fill:#edd4ac"/><path d="M395,752h93a0.87,0.87,0,0,1,1,.73v29.68a0.87,0.87,0,0,1-1,.73H395a0.87,0.87,0,0,1-1-.73V752.74a0.87,0.87,0,0,1,1-.73h0Z" style="fill:#edd4ac"/><path d="M-50,787.45H43a0.87,0.87,0,0,1,1,.73v29.68a0.87,0.87,0,0,1-1,.73H-50a0.87,0.87,0,0,1-1-.73V788.18a0.87,0.87,0,0,1,1-.73h0Z" style="fill:#edd4ac"/><path d="M49.13,787.45h93a0.87,0.87,0,0,1,1,.73v29.68a0.87,0.87,0,0,1-1,.73h-93a0.87,0.87,0,0,1-1-.73V788.18a0.87,0.87,0,0,1,1-.73h0Z" style="fill:#edd4ac"/><path d="M148.3,787.45h93a0.87,0.87,0,0,1,1,.73v29.68a0.87,0.87,0,0,1-1,.73h-93a0.87,0.87,0,0,1-1-.73V788.18a0.87,0.87,0,0,1,1-.73h0Z" style="fill:#edd4ac"/><path d="M247.46,787.45h93a0.87,0.87,0,0,1,1,.73v29.68a0.87,0.87,0,0,1-1,.73h-93a0.87,0.87,0,0,1-1-.73V788.18a0.87,0.87,0,0,1,1-.73h0Z" style="fill:#edd4ac"/><path d="M346.63,787.45h93a0.87,0.87,0,0,1,1,.73v29.68a0.87,0.87,0,0,1-1,.73h-93a0.87,0.87,0,0,1-1-.73V788.18a0.87,0.87,0,0,1,1-.73h0Z" style="fill:#f1ddbf"/><path d="M445.79,787.45h43.29v31.14H445.79a0.87,0.87,0,0,1-1-.73V788.18a0.87,0.87,0,0,1,1-.73h0Z" style="fill:#edd4ac"/><polygon points="-150.33 788.02 440.71 788.02 440.71 1634.13 -150.33 1634.13 -150.33 788.02 -150.33 788.02" style="fill:#d9b685"/><path d="M-50,787.37H43a0.87,0.87,0,0,1,1,.73v29.68a0.87,0.87,0,0,1-1,.73H-50a0.87,0.87,0,0,1-1-.73V788.1a0.87,0.87,0,0,1,1-.73h0Z" style="fill:#f1ddbf"/><path d="M49.14,787.37h93a0.87,0.87,0,0,1,1,.73v29.68a0.87,0.87,0,0,1-1,.73h-93a0.87,0.87,0,0,1-1-.73V788.1a0.87,0.87,0,0,1,1-.73h0Z" style="fill:#edd4ac"/><path d="M148.3,787.37h93a0.87,0.87,0,0,1,1,.73v29.68a0.87,0.87,0,0,1-1,.73h-93a0.87,0.87,0,0,1-1-.73V788.1a0.87,0.87,0,0,1,1-.73h0Z" style="fill:#edd4ac"/><path d="M247.47,787.37h93a0.87,0.87,0,0,1,1,.73v29.68a0.87,0.87,0,0,1-1,.73h-93a0.87,0.87,0,0,1-1-.73V788.1a0.87,0.87,0,0,1,1-.73h0Z" style="fill:#f1ddbf"/><path d="M346.63,787.37h93a0.87,0.87,0,0,1,1,.73v29.68a0.87,0.87,0,0,1-1,.73h-93a0.87,0.87,0,0,1-1-.73V788.1a0.87,0.87,0,0,1,1-.73h0Z" style="fill:#edd4ac"/><path d="M0.76,822.8h93a0.87,0.87,0,0,1,1,.73v29.68a0.87,0.87,0,0,1-1,.73h-93a0.87,0.87,0,0,1-1-.73V823.53a0.87,0.87,0,0,1,1-.73h0Z" style="fill:#edd4ac"/><path d="M99.93,822.8h93a0.87,0.87,0,0,1,1,.73v29.68a0.87,0.87,0,0,1-1,.73h-93a0.87,0.87,0,0,1-1-.73V823.53a0.87,0.87,0,0,1,1-.73h0Z" style="fill:#edd4ac"/><path d="M199.09,822.8h93a0.87,0.87,0,0,1,1,.73v29.68a0.87,0.87,0,0,1-1,.73h-93a0.87,0.87,0,0,1-1-.73V823.53a0.87,0.87,0,0,1,1-.73h0Z" style="fill:#edd4ac"/><path d="M298.26,822.8h93a0.87,0.87,0,0,1,1,.73v29.68a0.87,0.87,0,0,1-1,.73h-93a0.87,0.87,0,0,1-1-.73V823.53a0.87,0.87,0,0,1,1-.73h0Z" style="fill:#edd4ac"/><path d="M397.42,822.8h43.29v31.14H397.42a0.87,0.87,0,0,1-1-.73V823.53a0.87,0.87,0,0,1,1-.73h0Z" style="fill:#edd4ac"/><path d="M-50,858.29H43a0.87,0.87,0,0,1,1,.73v29.68a0.87,0.87,0,0,1-1,.73H-50a0.87,0.87,0,0,1-1-.73V859a0.87,0.87,0,0,1,1-.73h0Z" style="fill:#edd4ac"/><path d="M49.14,858.29h93a0.87,0.87,0,0,1,1,.73v29.68a0.87,0.87,0,0,1-1,.73h-93a0.87,0.87,0,0,1-1-.73V859a0.87,0.87,0,0,1,1-.73h0Z" style="fill:#edd4ac"/><path d="M148.3,858.29h93a0.87,0.87,0,0,1,1,.73v29.68a0.87,0.87,0,0,1-1,.73h-93a0.87,0.87,0,0,1-1-.73V859a0.87,0.87,0,0,1,1-.73h0Z" style="fill:#edd4ac"/><path d="M247.47,858.29h93a0.87,0.87,0,0,1,1,.73v29.68a0.87,0.87,0,0,1-1,.73h-93a0.87,0.87,0,0,1-1-.73V859a0.87,0.87,0,0,1,1-.73h0Z" style="fill:#edd4ac"/><path d="M346.63,858.29h93a0.87,0.87,0,0,1,1,.73v29.68a0.87,0.87,0,0,1-1,.73h-93a0.87,0.87,0,0,1-1-.73V859a0.87,0.87,0,0,1,1-.73h0Z" style="fill:#edd4ac"/><path d="M0.76,893.73h93a0.87,0.87,0,0,1,1,.73v29.68a0.87,0.87,0,0,1-1,.73h-93a0.87,0.87,0,0,1-1-.73V894.46a0.87,0.87,0,0,1,1-.73h0Z" style="fill:#edd4ac"/><path d="M99.93,893.73h93a0.87,0.87,0,0,1,1,.73v29.68a0.87,0.87,0,0,1-1,.73h-93a0.87,0.87,0,0,1-1-.73V894.46a0.87,0.87,0,0,1,1-.73h0Z" style="fill:#f1ddbf"/><path d="M199.09,893.73h93a0.87,0.87,0,0,1,1,.73v29.68a0.87,0.87,0,0,1-1,.73h-93a0.87,0.87,0,0,1-1-.73V894.46a0.87,0.87,0,0,1,1-.73h0Z" style="fill:#edd4ac"/><path d="M298.26,893.73h93a0.87,0.87,0,0,1,1,.73v29.68a0.87,0.87,0,0,1-1,.73h-93a0.87,0.87,0,0,1-1-.73V894.46a0.87,0.87,0,0,1,1-.73h0Z" style="fill:#f1ddbf"/><path d="M397.42,893.73h43.29v31.14H397.42a0.87,0.87,0,0,1-1-.73V894.46a0.87,0.87,0,0,1,1-.73h0Z" style="fill:#f1ddbf"/><path d="M-50,929.22H43a0.87,0.87,0,0,1,1,.73v29.68a0.87,0.87,0,0,1-1,.73H-50a0.87,0.87,0,0,1-1-.73V929.95a0.87,0.87,0,0,1,1-.73h0Z" style="fill:#edd4ac"/><path d="M49.14,929.22h93a0.87,0.87,0,0,1,1,.73v29.68a0.87,0.87,0,0,1-1,.73h-93a0.87,0.87,0,0,1-1-.73V929.95a0.87,0.87,0,0,1,1-.73h0Z" style="fill:#edd4ac"/><path d="M148.3,929.22h93a0.87,0.87,0,0,1,1,.73v29.68a0.87,0.87,0,0,1-1,.73h-93a0.87,0.87,0,0,1-1-.73V929.95a0.87,0.87,0,0,1,1-.73h0Z" style="fill:#edd4ac"/><path d="M247.47,929.22h93a0.87,0.87,0,0,1,1,.73v29.68a0.87,0.87,0,0,1-1,.73h-93a0.87,0.87,0,0,1-1-.73V929.95a0.87,0.87,0,0,1,1-.73h0Z" style="fill:#edd4ac"/><path d="M346.63,929.22h93a0.87,0.87,0,0,1,1,.73v29.68a0.87,0.87,0,0,1-1,.73h-93a0.87,0.87,0,0,1-1-.73V929.95a0.87,0.87,0,0,1,1-.73h0Z" style="fill:#edd4ac"/><path d="M0.76,964.65h93a0.87,0.87,0,0,1,1,.73v29.68a0.87,0.87,0,0,1-1,.73h-93a0.87,0.87,0,0,1-1-.73V965.38a0.87,0.87,0,0,1,1-.73h0Z" style="fill:#f1ddbf"/><path d="M99.93,964.65h93a0.87,0.87,0,0,1,1,.73v29.68a0.87,0.87,0,0,1-1,.73h-93a0.87,0.87,0,0,1-1-.73V965.38a0.87,0.87,0,0,1,1-.73h0Z" style="fill:#edd4ac"/><path d="M199.09,964.65h93a0.87,0.87,0,0,1,1,.73v29.68a0.87,0.87,0,0,1-1,.73h-93a0.87,0.87,0,0,1-1-.73V965.38a0.87,0.87,0,0,1,1-.73h0Z" style="fill:#edd4ac"/><path d="M298.26,964.65h93a0.87,0.87,0,0,1,1,.73v29.68a0.87,0.87,0,0,1-1,.73h-93a0.87,0.87,0,0,1-1-.73V965.38a0.87,0.87,0,0,1,1-.73h0Z" style="fill:#edd4ac"/><path d="M397.42,964.65h43.29V995.8H397.42a0.87,0.87,0,0,1-1-.73V965.38a0.87,0.87,0,0,1,1-.73h0Z" style="fill:#edd4ac"/><path d="M-50,1000.15H43a0.87,0.87,0,0,1,1,.73v29.68a0.87,0.87,0,0,1-1,.73H-50a0.87,0.87,0,0,1-1-.73v-29.68a0.87,0.87,0,0,1,1-.73h0Z" style="fill:#edd4ac"/><path d="M49.14,1000.15h93a0.87,0.87,0,0,1,1,.73v29.68a0.87,0.87,0,0,1-1,.73h-93a0.87,0.87,0,0,1-1-.73v-29.68a0.87,0.87,0,0,1,1-.73h0Z" style="fill:#edd4ac"/><path d="M148.3,1000.15h93a0.87,0.87,0,0,1,1,.73v29.68a0.87,0.87,0,0,1-1,.73h-93a0.87,0.87,0,0,1-1-.73v-29.68a0.87,0.87,0,0,1,1-.73h0Z" style="fill:#edd4ac"/><path d="M247.47,1000.15h93a0.87,0.87,0,0,1,1,.73v29.68a0.87,0.87,0,0,1-1,.73h-93a0.87,0.87,0,0,1-1-.73v-29.68a0.87,0.87,0,0,1,1-.73h0Z" style="fill:#f1ddbf"/><path d="M346.63,1000.15h93a0.87,0.87,0,0,1,1,.73v29.68a0.87,0.87,0,0,1-1,.73h-93a0.87,0.87,0,0,1-1-.73v-29.68a0.87,0.87,0,0,1,1-.73h0Z" style="fill:#edd4ac"/><path d="M0.76,1035.58h93a0.87,0.87,0,0,1,1,.73V1066a0.87,0.87,0,0,1-1,.73h-93a0.87,0.87,0,0,1-1-.73v-29.68a0.87,0.87,0,0,1,1-.73h0Z" style="fill:#edd4ac"/><path d="M99.93,1035.58h93a0.87,0.87,0,0,1,1,.73V1066a0.87,0.87,0,0,1-1,.73h-93a0.87,0.87,0,0,1-1-.73v-29.68a0.87,0.87,0,0,1,1-.73h0Z" style="fill:#f1ddbf"/><path d="M199.09,1035.58h93a0.87,0.87,0,0,1,1,.73V1066a0.87,0.87,0,0,1-1,.73h-93a0.87,0.87,0,0,1-1-.73v-29.68a0.87,0.87,0,0,1,1-.73h0Z" style="fill:#edd4ac"/><path d="M298.26,1035.58h93a0.87,0.87,0,0,1,1,.73V1066a0.87,0.87,0,0,1-1,.73h-93a0.87,0.87,0,0,1-1-.73v-29.68a0.87,0.87,0,0,1,1-.73h0Z" style="fill:#edd4ac"/><path d="M397.42,1035.58h43.29v31.14H397.42a0.87,0.87,0,0,1-1-.73v-29.68a0.87,0.87,0,0,1,1-.73h0Z" style="fill:#edd4ac"/><polygon points="538.18 787.44 1129.21 787.44 1129.21 1633.54 538.18 1633.54 538.18 787.44 538.18 787.44" style="fill:#d9b685"/><path d="M539.31,786.78h93a0.87,0.87,0,0,1,1,.73V817.2a0.87,0.87,0,0,1-1,.73h-93a0.87,0.87,0,0,1-1-.73V787.51a0.87,0.87,0,0,1,1-.73h0Z" style="fill:#edd4ac"/><path d="M638.47,786.78h93a0.87,0.87,0,0,1,1,.73V817.2a0.87,0.87,0,0,1-1,.73h-93a0.87,0.87,0,0,1-1-.73V787.51a0.87,0.87,0,0,1,1-.73h0Z" style="fill:#f1ddbf"/><path d="M737.64,786.78h93a0.87,0.87,0,0,1,1,.73V817.2a0.87,0.87,0,0,1-1,.73h-93a0.87,0.87,0,0,1-1-.73V787.51a0.87,0.87,0,0,1,1-.73h0Z" style="fill:#edd4ac"/><path d="M836.8,786.78h93a0.87,0.87,0,0,1,1,.73V817.2a0.87,0.87,0,0,1-1,.73h-93a0.87,0.87,0,0,1-1-.73V787.51a0.87,0.87,0,0,1,1-.73h0Z" style="fill:#edd4ac"/><path d="M936,786.78h93a0.87,0.87,0,0,1,1,.73V817.2a0.87,0.87,0,0,1-1,.73H936a0.87,0.87,0,0,1-1-.73V787.51a0.87,0.87,0,0,1,1-.73h0Z" style="fill:#f1ddbf"/><path d="M538.37,822.22H584a0.87,0.87,0,0,1,1,.73v29.68a0.87,0.87,0,0,1-1,.73H538.37V822.22h0Z" style="fill:#edd4ac"/><path d="M590.1,822.22h93a0.87,0.87,0,0,1,1,.73v29.68a0.87,0.87,0,0,1-1,.73h-93a0.87,0.87,0,0,1-1-.73V822.95a0.87,0.87,0,0,1,1-.73h0Z" style="fill:#edd4ac"/><path d="M689.27,822.22h93a0.87,0.87,0,0,1,1,.73v29.68a0.87,0.87,0,0,1-1,.73h-93a0.87,0.87,0,0,1-1-.73V822.95a0.87,0.87,0,0,1,1-.73h0Z" style="fill:#edd4ac"/><path d="M788.43,822.22h93a0.87,0.87,0,0,1,1,.73v29.68a0.87,0.87,0,0,1-1,.73h-93a0.87,0.87,0,0,1-1-.73V822.95a0.87,0.87,0,0,1,1-.73h0Z" style="fill:#edd4ac"/><path d="M887.6,822.22h93a0.87,0.87,0,0,1,1,.73v29.68a0.87,0.87,0,0,1-1,.73h-93a0.87,0.87,0,0,1-1-.73V822.95a0.87,0.87,0,0,1,1-.73h0Z" style="fill:#edd4ac"/><path d="M539.31,857.71h93a0.87,0.87,0,0,1,1,.73v29.68a0.87,0.87,0,0,1-1,.73h-93a0.87,0.87,0,0,1-1-.73V858.44a0.87,0.87,0,0,1,1-.73h0Z" style="fill:#edd4ac"/><path d="M638.47,857.71h93a0.87,0.87,0,0,1,1,.73v29.68a0.87,0.87,0,0,1-1,.73h-93a0.87,0.87,0,0,1-1-.73V858.44a0.87,0.87,0,0,1,1-.73h0Z" style="fill:#edd4ac"/><path d="M737.64,857.71h93a0.87,0.87,0,0,1,1,.73v29.68a0.87,0.87,0,0,1-1,.73h-93a0.87,0.87,0,0,1-1-.73V858.44a0.87,0.87,0,0,1,1-.73h0Z" style="fill:#edd4ac"/><path d="M836.8,857.71h93a0.87,0.87,0,0,1,1,.73v29.68a0.87,0.87,0,0,1-1,.73h-93a0.87,0.87,0,0,1-1-.73V858.44a0.87,0.87,0,0,1,1-.73h0Z" style="fill:#edd4ac"/><path d="M936,857.71h93a0.87,0.87,0,0,1,1,.73v29.68a0.87,0.87,0,0,1-1,.73H936a0.87,0.87,0,0,1-1-.73V858.44a0.87,0.87,0,0,1,1-.73h0Z" style="fill:#edd4ac"/><path d="M538.37,893.14H584a0.87,0.87,0,0,1,1,.73v29.68a0.87,0.87,0,0,1-1,.73H538.37V893.14h0Z" style="fill:#edd4ac"/><path d="M590.1,893.14h93a0.87,0.87,0,0,1,1,.73v29.68a0.87,0.87,0,0,1-1,.73h-93a0.87,0.87,0,0,1-1-.73V893.87a0.87,0.87,0,0,1,1-.73h0Z" style="fill:#edd4ac"/><path d="M689.27,893.14h93a0.87,0.87,0,0,1,1,.73v29.68a0.87,0.87,0,0,1-1,.73h-93a0.87,0.87,0,0,1-1-.73V893.87a0.87,0.87,0,0,1,1-.73h0Z" style="fill:#edd4ac"/><path d="M788.43,893.14h93a0.87,0.87,0,0,1,1,.73v29.68a0.87,0.87,0,0,1-1,.73h-93a0.87,0.87,0,0,1-1-.73V893.87a0.87,0.87,0,0,1,1-.73h0Z" style="fill:#f1ddbf"/><path d="M887.6,893.14h93a0.87,0.87,0,0,1,1,.73v29.68a0.87,0.87,0,0,1-1,.73h-93a0.87,0.87,0,0,1-1-.73V893.87a0.87,0.87,0,0,1,1-.73h0Z" style="fill:#edd4ac"/><path d="M539.31,928.64h93a0.87,0.87,0,0,1,1,.73V959a0.87,0.87,0,0,1-1,.73h-93a0.87,0.87,0,0,1-1-.73V929.37a0.87,0.87,0,0,1,1-.73h0Z" style="fill:#edd4ac"/><path d="M638.47,928.64h93a0.87,0.87,0,0,1,1,.73V959a0.87,0.87,0,0,1-1,.73h-93a0.87,0.87,0,0,1-1-.73V929.37a0.87,0.87,0,0,1,1-.73h0Z" style="fill:#edd4ac"/><path d="M737.64,928.64h93a0.87,0.87,0,0,1,1,.73V959a0.87,0.87,0,0,1-1,.73h-93a0.87,0.87,0,0,1-1-.73V929.37a0.87,0.87,0,0,1,1-.73h0Z" style="fill:#edd4ac"/><path d="M836.8,928.64h93a0.87,0.87,0,0,1,1,.73V959a0.87,0.87,0,0,1-1,.73h-93a0.87,0.87,0,0,1-1-.73V929.37a0.87,0.87,0,0,1,1-.73h0Z" style="fill:#edd4ac"/><path d="M936,928.64h93a0.87,0.87,0,0,1,1,.73V959a0.87,0.87,0,0,1-1,.73H936a0.87,0.87,0,0,1-1-.73V929.37a0.87,0.87,0,0,1,1-.73h0Z" style="fill:#edd4ac"/><path d="M538.37,964.07H584a0.87,0.87,0,0,1,1,.73v29.68a0.87,0.87,0,0,1-1,.73H538.37V964.07h0Z" style="fill:#edd4ac"/><path d="M590.1,964.07h93a0.87,0.87,0,0,1,1,.73v29.68a0.87,0.87,0,0,1-1,.73h-93a0.87,0.87,0,0,1-1-.73V964.8a0.87,0.87,0,0,1,1-.73h0Z" style="fill:#edd4ac"/><path d="M689.27,964.07h93a0.87,0.87,0,0,1,1,.73v29.68a0.87,0.87,0,0,1-1,.73h-93a0.87,0.87,0,0,1-1-.73V964.8a0.87,0.87,0,0,1,1-.73h0Z" style="fill:#f1ddbf"/><path d="M788.43,964.07h93a0.87,0.87,0,0,1,1,.73v29.68a0.87,0.87,0,0,1-1,.73h-93a0.87,0.87,0,0,1-1-.73V964.8a0.87,0.87,0,0,1,1-.73h0Z" style="fill:#edd4ac"/><path d="M887.6,964.07h93a0.87,0.87,0,0,1,1,.73v29.68a0.87,0.87,0,0,1-1,.73h-93a0.87,0.87,0,0,1-1-.73V964.8a0.87,0.87,0,0,1,1-.73h0Z" style="fill:#edd4ac"/><path d="M539.31,999.56h93a0.87,0.87,0,0,1,1,.73V1030a0.87,0.87,0,0,1-1,.73h-93a0.87,0.87,0,0,1-1-.73v-29.68a0.87,0.87,0,0,1,1-.73h0Z" style="fill:#edd4ac"/><path d="M638.47,999.56h93a0.87,0.87,0,0,1,1,.73V1030a0.87,0.87,0,0,1-1,.73h-93a0.87,0.87,0,0,1-1-.73v-29.68a0.87,0.87,0,0,1,1-.73h0Z" style="fill:#edd4ac"/><path d="M737.64,999.56h93a0.87,0.87,0,0,1,1,.73V1030a0.87,0.87,0,0,1-1,.73h-93a0.87,0.87,0,0,1-1-.73v-29.68a0.87,0.87,0,0,1,1-.73h0Z" style="fill:#edd4ac"/><path d="M836.8,999.56h93a0.87,0.87,0,0,1,1,.73V1030a0.87,0.87,0,0,1-1,.73h-93a0.87,0.87,0,0,1-1-.73v-29.68a0.87,0.87,0,0,1,1-.73h0Z" style="fill:#edd4ac"/><path d="M936,999.56h93a0.87,0.87,0,0,1,1,.73V1030a0.87,0.87,0,0,1-1,.73H936a0.87,0.87,0,0,1-1-.73v-29.68a0.87,0.87,0,0,1,1-.73h0Z" style="fill:#f1ddbf"/><path d="M538.37,1035H584a0.87,0.87,0,0,1,1,.73v29.68a0.87,0.87,0,0,1-1,.73H538.37V1035h0Z" style="fill:#edd4ac"/><path d="M590.1,1035h93a0.87,0.87,0,0,1,1,.73v29.68a0.87,0.87,0,0,1-1,.73h-93a0.87,0.87,0,0,1-1-.73v-29.68a0.87,0.87,0,0,1,1-.73h0Z" style="fill:#edd4ac"/><path d="M689.27,1035h93a0.87,0.87,0,0,1,1,.73v29.68a0.87,0.87,0,0,1-1,.73h-93a0.87,0.87,0,0,1-1-.73v-29.68a0.87,0.87,0,0,1,1-.73h0Z" style="fill:#edd4ac"/><path d="M788.43,1035h93a0.87,0.87,0,0,1,1,.73v29.68a0.87,0.87,0,0,1-1,.73h-93a0.87,0.87,0,0,1-1-.73v-29.68a0.87,0.87,0,0,1,1-.73h0Z" style="fill:#f1ddbf"/><path d="M887.6,1035h93a0.87,0.87,0,0,1,1,.73v29.68a0.87,0.87,0,0,1-1,.73h-93a0.87,0.87,0,0,1-1-.73v-29.68a0.87,0.87,0,0,1,1-.73h0Z" style="fill:#edd4ac"/></g><rect x="405.29" y="118.69" width="167.97" height="65.19" style="fill:#fff"/><text transform="translate(423.88 162.38)" style="font-size:36.8150520324707px;fill:#666;font-family:Alice;letter-spacing:3px">P<tspan x="25.66" y="0">E</tspan><tspan x="51.21" y="0">A</tspan><tspan x="78.27" y="0">CE</tspan></text><g style="clip-path:url(#clip-path-2)"><polygon points="190.99 468.89 784.88 468.89 784.88 1315 190.99 1315 190.99 468.89 190.99 468.89" style="fill:#d9b685"/><path d="M192.13,468.24h93.47a0.87,0.87,0,0,1,1,.73v29.68a0.87,0.87,0,0,1-1,.73H192.13a0.87,0.87,0,0,1-1-.73V469a0.87,0.87,0,0,1,1-.73h0Z" style="fill:#edd4ac"/><path d="M291.77,468.24h93.47a0.87,0.87,0,0,1,1,.73v29.68a0.88,0.88,0,0,1-1,.73H291.77a0.87,0.87,0,0,1-1-.73V469a0.87,0.87,0,0,1,1-.73h0Z" style="fill:#f1ddbf"/><path d="M391.41,468.24h93.47a0.87,0.87,0,0,1,1,.73v29.68a0.87,0.87,0,0,1-1,.73H391.41a0.87,0.87,0,0,1-1-.73V469a0.87,0.87,0,0,1,1-.73h0Z" style="fill:#edd4ac"/><path d="M491.06,468.24h93.47a0.87,0.87,0,0,1,1,.73v29.68a0.87,0.87,0,0,1-1,.73H491.06a0.87,0.87,0,0,1-1-.73V469a0.87,0.87,0,0,1,1-.73h0Z" style="fill:#edd4ac"/><path d="M590.7,468.24h93.47a0.87,0.87,0,0,1,1,.73v29.68a0.87,0.87,0,0,1-1,.73H590.7a0.87,0.87,0,0,1-1-.73V469a0.87,0.87,0,0,1,1-.73h0Z" style="fill:#f1ddbf"/><path d="M690.35,468.24h93.47a0.87,0.87,0,0,1,1,.73v29.68a0.88,0.88,0,0,1-1,.73H690.35a0.87,0.87,0,0,1-1-.73V469a0.87,0.87,0,0,1,1-.73h0Z" style="fill:#edd4ac"/><path d="M191.18,503.68H237a0.87,0.87,0,0,1,1,.73v29.68a0.87,0.87,0,0,1-1,.73h-45.8V503.68h0Z" style="fill:#edd4ac"/><path d="M243.16,503.68h93.47a0.87,0.87,0,0,1,1,.73v29.68a0.87,0.87,0,0,1-1,.73H243.16a0.87,0.87,0,0,1-1-.73V504.41a0.87,0.87,0,0,1,1-.73h0Z" style="fill:#edd4ac"/><path d="M342.81,503.68h93.46a0.87,0.87,0,0,1,1,.73v29.68a0.87,0.87,0,0,1-1,.73H342.81a0.87,0.87,0,0,1-1-.73V504.41a0.87,0.87,0,0,1,1-.73h0Z" style="fill:#edd4ac"/><path d="M442.45,503.68h93.47a0.87,0.87,0,0,1,1,.73v29.68a0.87,0.87,0,0,1-1,.73H442.45a0.87,0.87,0,0,1-1-.73V504.41a0.87,0.87,0,0,1,1-.73h0Z" style="fill:#edd4ac"/><path d="M542.09,503.68h93.47a0.87,0.87,0,0,1,1,.73v29.68a0.87,0.87,0,0,1-1,.73H542.09a0.88,0.88,0,0,1-1-.73V504.41a0.88,0.88,0,0,1,1-.73h0Z" style="fill:#edd4ac"/><path d="M641.74,503.68H735.2a0.87,0.87,0,0,1,1,.73v29.68a0.87,0.87,0,0,1-1,.73H641.74a0.88,0.88,0,0,1-1-.73V504.41a0.88,0.88,0,0,1,1-.73h0Z" style="fill:#edd4ac"/><path d="M741.38,503.68h43.5v31.14h-43.5a0.87,0.87,0,0,1-1-.73V504.41a0.87,0.87,0,0,1,1-.73h0Z" style="fill:#edd4ac"/><path d="M192.12,539.17h93.47a0.87,0.87,0,0,1,1,.73v29.68a0.87,0.87,0,0,1-1,.73H192.12a0.87,0.87,0,0,1-1-.73V539.9a0.87,0.87,0,0,1,1-.73h0Z" style="fill:#edd4ac"/><path d="M291.77,539.17h93.47a0.87,0.87,0,0,1,1,.73v29.68a0.88,0.88,0,0,1-1,.73H291.77a0.87,0.87,0,0,1-1-.73V539.9a0.87,0.87,0,0,1,1-.73h0Z" style="fill:#edd4ac"/><path d="M391.41,539.17h93.47a0.87,0.87,0,0,1,1,.73v29.68a0.87,0.87,0,0,1-1,.73H391.41a0.87,0.87,0,0,1-1-.73V539.9a0.87,0.87,0,0,1,1-.73h0Z" style="fill:#edd4ac"/><path d="M491.06,539.17h93.47a0.87,0.87,0,0,1,1,.73v29.68a0.87,0.87,0,0,1-1,.73H491.06a0.87,0.87,0,0,1-1-.73V539.9a0.87,0.87,0,0,1,1-.73h0Z" style="fill:#edd4ac"/><path d="M590.7,539.17h93.47a0.87,0.87,0,0,1,1,.73v29.68a0.87,0.87,0,0,1-1,.73H590.7a0.87,0.87,0,0,1-1-.73V539.9a0.87,0.87,0,0,1,1-.73h0Z" style="fill:#edd4ac"/><path d="M690.35,539.17h93.47a0.87,0.87,0,0,1,1,.73v29.68a0.87,0.87,0,0,1-1,.73H690.35a0.87,0.87,0,0,1-1-.73V539.9a0.87,0.87,0,0,1,1-.73h0Z" style="fill:#edd4ac"/><path d="M191.18,574.6H237a0.87,0.87,0,0,1,1,.73V605a0.87,0.87,0,0,1-1,.73h-45.8V574.6h0Z" style="fill:#edd4ac"/><path d="M243.16,574.6h93.47a0.87,0.87,0,0,1,1,.73V605a0.87,0.87,0,0,1-1,.73H243.16a0.87,0.87,0,0,1-1-.73V575.33a0.87,0.87,0,0,1,1-.73h0Z" style="fill:#edd4ac"/><path d="M342.81,574.6h93.46a0.87,0.87,0,0,1,1,.73V605a0.87,0.87,0,0,1-1,.73H342.81a0.87,0.87,0,0,1-1-.73V575.33a0.87,0.87,0,0,1,1-.73h0Z" style="fill:#edd4ac"/><path d="M442.45,574.6h93.47a0.87,0.87,0,0,1,1,.73V605a0.87,0.87,0,0,1-1,.73H442.45a0.87,0.87,0,0,1-1-.73V575.33a0.87,0.87,0,0,1,1-.73h0Z" style="fill:#f1ddbf"/><path d="M542.09,574.6h93.47a0.87,0.87,0,0,1,1,.73V605a0.87,0.87,0,0,1-1,.73H542.09a0.88,0.88,0,0,1-1-.73V575.33a0.87,0.87,0,0,1,1-.73h0Z" style="fill:#edd4ac"/><path d="M641.74,574.6H735.2a0.87,0.87,0,0,1,1,.73V605a0.87,0.87,0,0,1-1,.73H641.74a0.88,0.88,0,0,1-1-.73V575.33a0.87,0.87,0,0,1,1-.73h0Z" style="fill:#f1ddbf"/><path d="M741.38,574.6h43.5v31.14h-43.5a0.87,0.87,0,0,1-1-.73V575.33a0.87,0.87,0,0,1,1-.73h0Z" style="fill:#f1ddbf"/><path d="M192.12,610.09h93.47a0.87,0.87,0,0,1,1,.73v29.68a0.87,0.87,0,0,1-1,.73H192.12a0.87,0.87,0,0,1-1-.73V610.82a0.87,0.87,0,0,1,1-.73h0Z" style="fill:#edd4ac"/><path d="M291.77,610.09h93.47a0.87,0.87,0,0,1,1,.73v29.68a0.87,0.87,0,0,1-1,.73H291.77a0.87,0.87,0,0,1-1-.73V610.82a0.87,0.87,0,0,1,1-.73h0Z" style="fill:#edd4ac"/><path d="M391.41,610.09h93.47a0.87,0.87,0,0,1,1,.73v29.68a0.87,0.87,0,0,1-1,.73H391.41a0.87,0.87,0,0,1-1-.73V610.82a0.87,0.87,0,0,1,1-.73h0Z" style="fill:#edd4ac"/><path d="M491.06,610.09h93.47a0.87,0.87,0,0,1,1,.73v29.68a0.87,0.87,0,0,1-1,.73H491.06a0.87,0.87,0,0,1-1-.73V610.82a0.87,0.87,0,0,1,1-.73h0Z" style="fill:#edd4ac"/><path d="M590.7,610.09h93.47a0.87,0.87,0,0,1,1,.73v29.68a0.87,0.87,0,0,1-1,.73H590.7a0.87,0.87,0,0,1-1-.73V610.82a0.87,0.87,0,0,1,1-.73h0Z" style="fill:#edd4ac"/><path d="M690.35,610.09h93.47a0.87,0.87,0,0,1,1,.73v29.68a0.87,0.87,0,0,1-1,.73H690.35a0.87,0.87,0,0,1-1-.73V610.82a0.87,0.87,0,0,1,1-.73h0Z" style="fill:#edd4ac"/><path d="M191.18,645.53H237a0.87,0.87,0,0,1,1,.73v29.68a0.87,0.87,0,0,1-1,.73h-45.8V645.53h0Z" style="fill:#edd4ac"/><path d="M243.16,645.53h93.47a0.87,0.87,0,0,1,1,.73v29.68a0.87,0.87,0,0,1-1,.73H243.16a0.87,0.87,0,0,1-1-.73V646.26a0.87,0.87,0,0,1,1-.73h0Z" style="fill:#edd4ac"/><path d="M342.81,645.53h93.46a0.87,0.87,0,0,1,1,.73v29.68a0.87,0.87,0,0,1-1,.73H342.81a0.87,0.87,0,0,1-1-.73V646.26a0.87,0.87,0,0,1,1-.73h0Z" style="fill:#f1ddbf"/><path d="M442.45,645.53h93.47a0.87,0.87,0,0,1,1,.73v29.68a0.87,0.87,0,0,1-1,.73H442.45a0.87,0.87,0,0,1-1-.73V646.26a0.87,0.87,0,0,1,1-.73h0Z" style="fill:#edd4ac"/><path d="M542.09,645.53h93.47a0.87,0.87,0,0,1,1,.73v29.68a0.87,0.87,0,0,1-1,.73H542.09a0.87,0.87,0,0,1-1-.73V646.26a0.87,0.87,0,0,1,1-.73h0Z" style="fill:#edd4ac"/><path d="M641.74,645.53H735.2a0.87,0.87,0,0,1,1,.73v29.68a0.87,0.87,0,0,1-1,.73H641.74a0.87,0.87,0,0,1-1-.73V646.26a0.87,0.87,0,0,1,1-.73h0Z" style="fill:#edd4ac"/><path d="M741.38,645.53h43.5v31.14h-43.5a0.87,0.87,0,0,1-1-.73V646.26a0.87,0.87,0,0,1,1-.73h0Z" style="fill:#edd4ac"/><path d="M192.12,681h93.47a0.87,0.87,0,0,1,1,.73v29.68a0.87,0.87,0,0,1-1,.73H192.12a0.87,0.87,0,0,1-1-.73V681.75a0.87,0.87,0,0,1,1-.73h0Z" style="fill:#edd4ac"/><path d="M291.77,681h93.47a0.87,0.87,0,0,1,1,.73v29.68a0.88,0.88,0,0,1-1,.73H291.77a0.87,0.87,0,0,1-1-.73V681.75a0.87,0.87,0,0,1,1-.73h0Z" style="fill:#edd4ac"/><path d="M391.41,681h93.47a0.87,0.87,0,0,1,1,.73v29.68a0.87,0.87,0,0,1-1,.73H391.41a0.87,0.87,0,0,1-1-.73V681.75a0.87,0.87,0,0,1,1-.73h0Z" style="fill:#edd4ac"/><path d="M491.06,681h93.47a0.87,0.87,0,0,1,1,.73v29.68a0.87,0.87,0,0,1-1,.73H491.06a0.87,0.87,0,0,1-1-.73V681.75a0.87,0.87,0,0,1,1-.73h0Z" style="fill:#edd4ac"/><path d="M590.7,681h93.47a0.87,0.87,0,0,1,1,.73v29.68a0.87,0.87,0,0,1-1,.73H590.7a0.87,0.87,0,0,1-1-.73V681.75a0.87,0.87,0,0,1,1-.73h0Z" style="fill:#f1ddbf"/><path d="M690.35,681h93.47a0.87,0.87,0,0,1,1,.73v29.68a0.87,0.87,0,0,1-1,.73H690.35a0.87,0.87,0,0,1-1-.73V681.75a0.87,0.87,0,0,1,1-.73h0Z" style="fill:#edd4ac"/><path d="M191.18,716.45H237a0.87,0.87,0,0,1,1,.73v29.68a0.87,0.87,0,0,1-1,.73h-45.8V716.45h0Z" style="fill:#edd4ac"/><path d="M243.16,716.45h93.47a0.87,0.87,0,0,1,1,.73v29.68a0.87,0.87,0,0,1-1,.73H243.16a0.87,0.87,0,0,1-1-.73V717.18a0.87,0.87,0,0,1,1-.73h0Z" style="fill:#edd4ac"/><path d="M342.81,716.45h93.46a0.87,0.87,0,0,1,1,.73v29.68a0.87,0.87,0,0,1-1,.73H342.81a0.87,0.87,0,0,1-1-.73V717.18a0.87,0.87,0,0,1,1-.73h0Z" style="fill:#edd4ac"/><path d="M442.45,716.45h93.47a0.87,0.87,0,0,1,1,.73v29.68a0.87,0.87,0,0,1-1,.73H442.45a0.87,0.87,0,0,1-1-.73V717.18a0.87,0.87,0,0,1,1-.73h0Z" style="fill:#f1ddbf"/><path d="M542.09,716.45h93.47a0.87,0.87,0,0,1,1,.73v29.68a0.87,0.87,0,0,1-1,.73H542.09a0.87,0.87,0,0,1-1-.73V717.18a0.88,0.88,0,0,1,1-.73h0Z" style="fill:#edd4ac"/><path d="M641.74,716.45H735.2a0.87,0.87,0,0,1,1,.73v29.68a0.87,0.87,0,0,1-1,.73H641.74a0.87,0.87,0,0,1-1-.73V717.18a0.88,0.88,0,0,1,1-.73h0Z" style="fill:#edd4ac"/><path d="M741.38,716.45h43.5V747.6h-43.5a0.87,0.87,0,0,1-1-.73V717.18a0.87,0.87,0,0,1,1-.73h0Z" style="fill:#edd4ac"/><path d="M192.12,751.94h93.47a0.87,0.87,0,0,1,1,.73v29.68a0.87,0.87,0,0,1-1,.73H192.12a0.87,0.87,0,0,1-1-.73V752.67a0.87,0.87,0,0,1,1-.73h0Z" style="fill:#edd4ac"/><path d="M291.77,751.94h93.47a0.87,0.87,0,0,1,1,.73v29.68a0.87,0.87,0,0,1-1,.73H291.77a0.87,0.87,0,0,1-1-.73V752.67a0.87,0.87,0,0,1,1-.73h0Z" style="fill:#edd4ac"/><path d="M391.41,751.94h93.47a0.87,0.87,0,0,1,1,.73v29.68a0.87,0.87,0,0,1-1,.73H391.41a0.87,0.87,0,0,1-1-.73V752.67a0.87,0.87,0,0,1,1-.73h0Z" style="fill:#edd4ac"/><path d="M491.06,751.94h93.47a0.87,0.87,0,0,1,1,.73v29.68a0.87,0.87,0,0,1-1,.73H491.06a0.87,0.87,0,0,1-1-.73V752.67a0.87,0.87,0,0,1,1-.73h0Z" style="fill:#edd4ac"/><path d="M590.7,751.94h93.47a0.87,0.87,0,0,1,1,.73v29.68a0.87,0.87,0,0,1-1,.73H590.7a0.87,0.87,0,0,1-1-.73V752.67a0.87,0.87,0,0,1,1-.73h0Z" style="fill:#edd4ac"/><path d="M690.35,751.94h93.47a0.87,0.87,0,0,1,1,.73v29.68a0.87,0.87,0,0,1-1,.73H690.35a0.87,0.87,0,0,1-1-.73V752.67a0.87,0.87,0,0,1,1-.73h0Z" style="fill:#edd4ac"/><path d="M191.18,787.38H237a0.87,0.87,0,0,1,1,.73v29.68a0.87,0.87,0,0,1-1,.73h-45.8V787.38h0Z" style="fill:#edd4ac"/><path d="M243.16,787.38h93.47a0.87,0.87,0,0,1,1,.73v29.68a0.87,0.87,0,0,1-1,.73H243.16a0.87,0.87,0,0,1-1-.73V788.11a0.87,0.87,0,0,1,1-.73h0Z" style="fill:#edd4ac"/><path d="M342.81,787.38h93.46a0.87,0.87,0,0,1,1,.73v29.68a0.87,0.87,0,0,1-1,.73H342.81a0.87,0.87,0,0,1-1-.73V788.11a0.87,0.87,0,0,1,1-.73h0Z" style="fill:#edd4ac"/><path d="M442.45,787.38h93.47a0.87,0.87,0,0,1,1,.73v29.68a0.87,0.87,0,0,1-1,.73H442.45a0.87,0.87,0,0,1-1-.73V788.11a0.87,0.87,0,0,1,1-.73h0Z" style="fill:#edd4ac"/><path d="M542.09,787.38h93.47a0.87,0.87,0,0,1,1,.73v29.68a0.87,0.87,0,0,1-1,.73H542.09a0.88,0.88,0,0,1-1-.73V788.11a0.87,0.87,0,0,1,1-.73h0Z" style="fill:#edd4ac"/><path d="M641.74,787.38H735.2a0.87,0.87,0,0,1,1,.73v29.68a0.87,0.87,0,0,1-1,.73H641.74a0.88,0.88,0,0,1-1-.73V788.11a0.87,0.87,0,0,1,1-.73h0Z" style="fill:#edd4ac"/><path d="M741.38,787.38h43.5v31.14h-43.5a0.87,0.87,0,0,1-1-.73V788.11a0.87,0.87,0,0,1,1-.73h0Z" style="fill:#f1ddbf"/><path d="M192.12,822.87h93.47a0.87,0.87,0,0,1,1,.73v29.68a0.87,0.87,0,0,1-1,.73H192.12a0.87,0.87,0,0,1-1-.73V823.6a0.87,0.87,0,0,1,1-.73h0Z" style="fill:#edd4ac"/><path d="M291.77,822.87h93.47a0.88,0.88,0,0,1,1,.73v29.68a0.87,0.87,0,0,1-1,.73H291.77a0.87,0.87,0,0,1-1-.73V823.6a0.87,0.87,0,0,1,1-.73h0Z" style="fill:#edd4ac"/><path d="M391.41,822.87h93.47a0.87,0.87,0,0,1,1,.73v29.68a0.87,0.87,0,0,1-1,.73H391.41a0.87,0.87,0,0,1-1-.73V823.6a0.87,0.87,0,0,1,1-.73h0Z" style="fill:#edd4ac"/><path d="M491.06,822.87h93.47a0.87,0.87,0,0,1,1,.73v29.68a0.87,0.87,0,0,1-1,.73H491.06a0.87,0.87,0,0,1-1-.73V823.6a0.87,0.87,0,0,1,1-.73h0Z" style="fill:#f1ddbf"/><path d="M590.7,822.87h93.47a0.87,0.87,0,0,1,1,.73v29.68a0.87,0.87,0,0,1-1,.73H590.7a0.87,0.87,0,0,1-1-.73V823.6a0.87,0.87,0,0,1,1-.73h0Z" style="fill:#edd4ac"/><path d="M690.35,822.87h93.47a0.88,0.88,0,0,1,1,.73v29.68a0.87,0.87,0,0,1-1,.73H690.35a0.87,0.87,0,0,1-1-.73V823.6a0.87,0.87,0,0,1,1-.73h0Z" style="fill:#edd4ac"/><path d="M191.18,858.3H237a0.87,0.87,0,0,1,1,.73v29.68a0.87,0.87,0,0,1-1,.73h-45.8V858.3h0Z" style="fill:#edd4ac"/><path d="M243.16,858.3h93.47a0.87,0.87,0,0,1,1,.73v29.68a0.87,0.87,0,0,1-1,.73H243.16a0.87,0.87,0,0,1-1-.73V859a0.87,0.87,0,0,1,1-.73h0Z" style="fill:#f1ddbf"/><path d="M342.81,858.3h93.46a0.87,0.87,0,0,1,1,.73v29.68a0.87,0.87,0,0,1-1,.73H342.81a0.87,0.87,0,0,1-1-.73V859a0.87,0.87,0,0,1,1-.73h0Z" style="fill:#edd4ac"/><path d="M442.45,858.3h93.47a0.87,0.87,0,0,1,1,.73v29.68a0.87,0.87,0,0,1-1,.73H442.45a0.87,0.87,0,0,1-1-.73V859a0.87,0.87,0,0,1,1-.73h0Z" style="fill:#edd4ac"/><path d="M542.09,858.3h93.47a0.87,0.87,0,0,1,1,.73v29.68a0.87,0.87,0,0,1-1,.73H542.09a0.87,0.87,0,0,1-1-.73V859a0.87,0.87,0,0,1,1-.73h0Z" style="fill:#edd4ac"/><path d="M641.74,858.3H735.2a0.87,0.87,0,0,1,1,.73v29.68a0.87,0.87,0,0,1-1,.73H641.74a0.87,0.87,0,0,1-1-.73V859a0.87,0.87,0,0,1,1-.73h0Z" style="fill:#edd4ac"/><path d="M741.38,858.3h43.5v31.14h-43.5a0.87,0.87,0,0,1-1-.73V859a0.87,0.87,0,0,1,1-.73h0Z" style="fill:#edd4ac"/><path d="M192.12,893.79h93.47a0.87,0.87,0,0,1,1,.73v29.68a0.87,0.87,0,0,1-1,.73H192.12a0.87,0.87,0,0,1-1-.73V894.52a0.87,0.87,0,0,1,1-.73h0Z" style="fill:#edd4ac"/><path d="M291.77,893.79h93.47a0.87,0.87,0,0,1,1,.73v29.68a0.88,0.88,0,0,1-1,.73H291.77a0.87,0.87,0,0,1-1-.73V894.52a0.87,0.87,0,0,1,1-.73h0Z" style="fill:#edd4ac"/><path d="M391.41,893.79h93.47a0.87,0.87,0,0,1,1,.73v29.68a0.87,0.87,0,0,1-1,.73H391.41a0.87,0.87,0,0,1-1-.73V894.52a0.87,0.87,0,0,1,1-.73h0Z" style="fill:#edd4ac"/><path d="M491.06,893.79h93.47a0.87,0.87,0,0,1,1,.73v29.68a0.87,0.87,0,0,1-1,.73H491.06a0.87,0.87,0,0,1-1-.73V894.52a0.87,0.87,0,0,1,1-.73h0Z" style="fill:#edd4ac"/><path d="M590.7,893.79h93.47a0.87,0.87,0,0,1,1,.73v29.68a0.87,0.87,0,0,1-1,.73H590.7a0.87,0.87,0,0,1-1-.73V894.52a0.87,0.87,0,0,1,1-.73h0Z" style="fill:#edd4ac"/><path d="M690.35,893.79h93.47a0.87,0.87,0,0,1,1,.73v29.68a0.88,0.88,0,0,1-1,.73H690.35a0.87,0.87,0,0,1-1-.73V894.52a0.87,0.87,0,0,1,1-.73h0Z" style="fill:#edd4ac"/><path d="M191.18,929.23H237a0.87,0.87,0,0,1,1,.73v29.68a0.87,0.87,0,0,1-1,.73h-45.8V929.23h0Z" style="fill:#edd4ac"/><path d="M243.16,929.23h93.47a0.87,0.87,0,0,1,1,.73v29.68a0.87,0.87,0,0,1-1,.73H243.16a0.87,0.87,0,0,1-1-.73V930a0.87,0.87,0,0,1,1-.73h0Z" style="fill:#edd4ac"/><path d="M342.81,929.23h93.46a0.87,0.87,0,0,1,1,.73v29.68a0.87,0.87,0,0,1-1,.73H342.81a0.87,0.87,0,0,1-1-.73V930a0.87,0.87,0,0,1,1-.73h0Z" style="fill:#f1ddbf"/><path d="M442.45,929.23h93.47a0.87,0.87,0,0,1,1,.73v29.68a0.87,0.87,0,0,1-1,.73H442.45a0.87,0.87,0,0,1-1-.73V930a0.87,0.87,0,0,1,1-.73h0Z" style="fill:#edd4ac"/><path d="M542.09,929.23h93.47a0.87,0.87,0,0,1,1,.73v29.68a0.87,0.87,0,0,1-1,.73H542.09a0.87,0.87,0,0,1-1-.73V930a0.87,0.87,0,0,1,1-.73h0Z" style="fill:#edd4ac"/><path d="M641.74,929.23H735.2a0.87,0.87,0,0,1,1,.73v29.68a0.87,0.87,0,0,1-1,.73H641.74a0.87,0.87,0,0,1-1-.73V930a0.87,0.87,0,0,1,1-.73h0Z" style="fill:#edd4ac"/><path d="M741.38,929.23h43.5v31.14h-43.5a0.87,0.87,0,0,1-1-.73V930a0.87,0.87,0,0,1,1-.73h0Z" style="fill:#edd4ac"/><path d="M192.12,964.72h93.47a0.87,0.87,0,0,1,1,.73v29.68a0.87,0.87,0,0,1-1,.73H192.12a0.87,0.87,0,0,1-1-.73V965.45a0.87,0.87,0,0,1,1-.73h0Z" style="fill:#edd4ac"/><path d="M291.77,964.72h93.47a0.88,0.88,0,0,1,1,.73v29.68a0.87,0.87,0,0,1-1,.73H291.77a0.87,0.87,0,0,1-1-.73V965.45a0.87,0.87,0,0,1,1-.73h0Z" style="fill:#edd4ac"/><path d="M391.41,964.72h93.47a0.87,0.87,0,0,1,1,.73v29.68a0.87,0.87,0,0,1-1,.73H391.41a0.87,0.87,0,0,1-1-.73V965.45a0.87,0.87,0,0,1,1-.73h0Z" style="fill:#edd4ac"/><path d="M491.06,964.72h93.47a0.87,0.87,0,0,1,1,.73v29.68a0.87,0.87,0,0,1-1,.73H491.06a0.87,0.87,0,0,1-1-.73V965.45a0.87,0.87,0,0,1,1-.73h0Z" style="fill:#edd4ac"/><path d="M590.7,964.72h93.47a0.87,0.87,0,0,1,1,.73v29.68a0.87,0.87,0,0,1-1,.73H590.7a0.87,0.87,0,0,1-1-.73V965.45a0.87,0.87,0,0,1,1-.73h0Z" style="fill:#edd4ac"/><path d="M690.35,964.72h93.47a0.87,0.87,0,0,1,1,.73v29.68a0.87,0.87,0,0,1-1,.73H690.35a0.87,0.87,0,0,1-1-.73V965.45a0.87,0.87,0,0,1,1-.73h0Z" style="fill:#edd4ac"/><path d="M191.18,1000.15H237a0.87,0.87,0,0,1,1,.73v29.68a0.87,0.87,0,0,1-1,.73h-45.8v-31.14h0Z" style="fill:#edd4ac"/><path d="M243.16,1000.15h93.47a0.87,0.87,0,0,1,1,.73v29.68a0.87,0.87,0,0,1-1,.73H243.16a0.87,0.87,0,0,1-1-.73v-29.68a0.87,0.87,0,0,1,1-.73h0Z" style="fill:#edd4ac"/><path d="M342.81,1000.15h93.46a0.87,0.87,0,0,1,1,.73v29.68a0.87,0.87,0,0,1-1,.73H342.81a0.87,0.87,0,0,1-1-.73v-29.68a0.87,0.87,0,0,1,1-.73h0Z" style="fill:#edd4ac"/><path d="M442.45,1000.15h93.47a0.87,0.87,0,0,1,1,.73v29.68a0.87,0.87,0,0,1-1,.73H442.45a0.87,0.87,0,0,1-1-.73v-29.68a0.87,0.87,0,0,1,1-.73h0Z" style="fill:#edd4ac"/><path d="M542.09,1000.15h93.47a0.87,0.87,0,0,1,1,.73v29.68a0.87,0.87,0,0,1-1,.73H542.09a0.87,0.87,0,0,1-1-.73v-29.68a0.87,0.87,0,0,1,1-.73h0Z" style="fill:#edd4ac"/><path d="M641.74,1000.15H735.2a0.87,0.87,0,0,1,1,.73v29.68a0.87,0.87,0,0,1-1,.73H641.74a0.87,0.87,0,0,1-1-.73v-29.68a0.87,0.87,0,0,1,1-.73h0Z" style="fill:#f1ddbf"/><path d="M741.38,1000.15h43.5v31.14h-43.5a0.87,0.87,0,0,1-1-.73v-29.68a0.87,0.87,0,0,1,1-.73h0Z" style="fill:#edd4ac"/><path d="M192.12,1035.64h93.47a0.87,0.87,0,0,1,1,.73v29.68a0.87,0.87,0,0,1-1,.73H192.12a0.87,0.87,0,0,1-1-.73v-29.68a0.87,0.87,0,0,1,1-.73h0Z" style="fill:#edd4ac"/><path d="M291.77,1035.64h93.47a0.87,0.87,0,0,1,1,.73v29.68a0.87,0.87,0,0,1-1,.73H291.77a0.87,0.87,0,0,1-1-.73v-29.68a0.87,0.87,0,0,1,1-.73h0Z" style="fill:#f1ddbf"/><path d="M391.41,1035.64h93.47a0.87,0.87,0,0,1,1,.73v29.68a0.87,0.87,0,0,1-1,.73H391.41a0.87,0.87,0,0,1-1-.73v-29.68a0.87,0.87,0,0,1,1-.73h0Z" style="fill:#edd4ac"/><path d="M491.06,1035.64h93.47a0.87,0.87,0,0,1,1,.73v29.68a0.87,0.87,0,0,1-1,.73H491.06a0.87,0.87,0,0,1-1-.73v-29.68a0.87,0.87,0,0,1,1-.73h0Z" style="fill:#edd4ac"/><path d="M590.7,1035.64h93.47a0.87,0.87,0,0,1,1,.73v29.68a0.87,0.87,0,0,1-1,.73H590.7a0.87,0.87,0,0,1-1-.73v-29.68a0.87,0.87,0,0,1,1-.73h0Z" style="fill:#edd4ac"/><path d="M690.35,1035.64h93.47a0.87,0.87,0,0,1,1,.73v29.68a0.87,0.87,0,0,1-1,.73H690.35a0.87,0.87,0,0,1-1-.73v-29.68a0.87,0.87,0,0,1,1-.73h0Z" style="fill:#edd4ac"/></g><rect x="213.54" y="798" width="551.5" height="23.3" style="fill:#ccc;stroke:#999;stroke-miterlimit:10;stroke-width:3px"/><path d="M963.53,1048.51V316l13-15.34V281.44l-72.1-.77c-50.6,74-52.92-35.28-52.92-35.28h-43V220.08c-46.79.77-43.72-6.9-43.72-6.9-66.73-94.34-98.17-86.67-98.17-86.67V110.41H627.59c0-.72-0.06-1.44-0.08-2.16l0.33-.51c0-54.19-56.65-97-118.36-104.9l-0.72-.1c-0.84-.1-1.68-0.18-2.52-0.27a151,151,0,0,0-16.71-1H489a151,151,0,0,0-16.71,1c-0.84.09-1.68,0.17-2.52,0.27l-0.72.1c-61.72,7.94-118.36,50.7-118.36,104.9l0.33,0.51c0,0.72-.08,1.44-0.08,2.16H311.84v16.11s-31.45-7.67-98.17,86.67c0,0,3.07,7.67-43.72,6.9v25.31H127s-2.32,109.23-52.92,35.28L2,281.44v19.17L15,316v732.55h948.5Z" style="fill:none;stroke:#d9b685;stroke-miterlimit:10;stroke-width:3px"/><path d="M212,601.09C212,447.85,336.1,323.6,489.27,323.33,642.45,323.6,753,432.87,765,586.1V798" style="fill:none;stroke:#d9b685;stroke-miterlimit:10;stroke-width:3px"/><line x1="212.01" y1="601.09" x2="212.01" y2="800.81" style="fill:none;stroke:#d9b685;stroke-miterlimit:10;stroke-width:3px"/></svg>