<?xml version="1.0" encoding="utf-8"?>
<!-- Generator: Adobe Illustrator 16.0.0, SVG Export Plug-In . SVG Version: 6.00 Build 0)  -->
<!DOCTYPE svg PUBLIC "-//W3C//DTD SVG 1.1//EN" "http://www.w3.org/Graphics/SVG/1.1/DTD/svg11.dtd">
<svg version="1.1" id="Layer_1" xmlns="http://www.w3.org/2000/svg" xmlns:xlink="http://www.w3.org/1999/xlink" x="0px" y="0px"
	 width="216px" height="216px" viewBox="0 0 216 216" enable-background="new 0 0 216 216" xml:space="preserve">
<g>
	<path fill="#9A3820" d="M46.9,77.8c-5.8,0-6,1.4-7.1,7h-2.3c0.3-2.2,0.7-4.3,0.9-6.5c0.3-2.2,0.5-4.3,0.5-6.5h1.8
		c0.6,2.3,2.5,2.2,4.6,2.2H85c2.1,0,4-0.1,4.1-2.4l1.8,0.3c-0.3,2.1-0.6,4.1-0.8,6.2C90,80.2,90,82.2,90,84.3l-2.3,0.8
		c-0.2-2.8-0.5-7.4-5.7-7.4H69.4v40.9c0,5.9,2.7,6.6,6.4,6.6h1.5v2.3c-3,0-8.4-0.3-12.5-0.3c-4.6,0-10,0.3-13,0.3v-2.3h1.5
		c4.2,0,6.4-0.4,6.4-6.5v-41H46.9z"/>
	<path fill="#9A3820" d="M100.4,90.3h6.7c10.5,0,18.2,5.3,18.2,17c0,9.3-6.6,16.5-15.5,16.5c-8.1,0-9.4-1.6-9.4-8.9V90.3z
		 M77.8,127.6c4.5,0,12-0.4,18.5-0.4c6.5,0,13.1,0.4,18.3,0.4c13.6,0,24.7-9.4,24.7-20.7c0-12.7-11.9-19-23.3-18.7v-0.2
		c9.2-1.7,19-6.3,19-17c0-9.1-6.6-16.4-24.2-16.4c-4.8,0-10.8,0.4-16.7,0.4c-5.9,0-11.7-0.4-16.3-0.4v3.1h1.5c3.8,0,7.7,0.5,7.7,6
		v54.8c0,5.4-4,6-7.7,6h-1.5V127.6z M100.4,58.3h6.3c7.1,0,14.3,2.6,14.3,14.7c0,9.8-6.6,13.6-15.5,13.6h-5.1V58.3z"/>
	<path fill="#9A3820" d="M185.7,100.8c-2.3-9.5-8.8-12.8-17.8-12.8c-13.8,0-20.5,10.1-20.5,23c0,12.7,6.1,26.2,20.7,26.2
		c3.7,0.1,7.5-0.5,8.5-1.5v-12.5c0-3.2-3-3.9-5.8-3.9h-1V117c3.8,0.2,7.7,0.3,11.5,0.3c3.5,0,6.8-0.2,10.3-0.3v2.3h-1
		c-2.7,0-4.1,1.2-4.1,3.9v11.7l1.8,1v1.4c-6.8,1.9-13.5,3.3-21.4,3.3c-17.2,0-30.2-10.3-30.2-28.8c0-17.8,15.2-27.1,30.7-27.1
		c4.8,0,8.1,0.7,11.1,1.4c3,0.7,5.6,1.4,8.7,1.5c0,2.8,0,8.7,0.9,13.1L185.7,100.8z"/>
</g>
<g>
	<g>
		<path fill="#003767" d="M66.8,164.6h-0.5c-0.6-2.9-3.1-4-5.8-4c-4.4,0-6.9,3.8-6.9,7.9c0,4.3,2.6,8.6,7.1,8.6c2,0,3-0.7,3.4-1
			v-3.7c0-1.8-0.9-1.8-2.3-1.8V170c1.2,0,2.3,0.1,3.4,0.1c1.1,0,2.3,0,3-0.1v0.6c-0.8,0-1.8,0-1.8,1.8v3.3l0.4,0.4v0.4
			c-2,0.7-4.3,1.4-6.5,1.4c-7,0-9.5-5.5-9.5-9c0-5.2,4-9.1,9.2-9.1c2.2,0,4.3,0.6,6.4,1.3L66.8,164.6z"/>
		<path fill="#003767" d="M67.2,176.9h0.7c0.7,0,1.2,0,1.2-0.8v-7c0-0.8-0.9-0.9-1.3-1.1v-0.4c1.8-0.8,2.8-1.4,3-1.4
			c0.1,0,0.2,0.1,0.2,0.3v2.2h0.1c0.6-1,1.7-2.6,3.2-2.6c0.6,0,1.4,0.4,1.4,1.3c0,0.7-0.5,1.3-1.2,1.3c-0.8,0-0.8-0.6-1.6-0.6
			c-0.4,0-1.8,0.6-1.8,2.1v5.8c0,0.8,0.5,0.8,1.2,0.8h1.4v0.6c-1.4,0-2.4-0.1-3.5-0.1c-1,0-2.1,0-3,0.1V176.9z"/>
		<path fill="#003767" d="M77.3,171.8c0-2.1,1-5,3.4-5c2.6,0,3.7,3.4,3.7,5.4c0,2.1-1,5-3.5,5C78.3,177.2,77.3,173.9,77.3,171.8z
			 M75,172.1c0,3.5,2.7,5.8,6,5.8c3.2,0,5.7-2.7,5.7-5.9c0-3.5-2.6-5.8-6-5.8C77.3,166.2,75,168.9,75,172.1z"/>
		<path fill="#003767" d="M96.7,176.1c0,0.4,0.3,0.5,0.7,0.5c0.3,0,0.7,0,1,0v0.5c-1.1,0.1-3.1,0.6-3.6,0.8l-0.1-0.1v-2
			c-1.5,1.2-2.6,2.1-4.4,2.1c-1.3,0-2.7-0.9-2.7-3v-6.4c0-0.6-0.1-1.3-1.5-1.4v-0.5c0.9,0,2.9-0.2,3.2-0.2c0.3,0,0.3,0.2,0.3,0.7
			v6.4c0,0.7,0,2.9,2.2,2.9c0.8,0,2-0.6,3-1.5v-6.7c0-0.5-1.2-0.8-2.1-1v-0.4c2.2-0.2,3.6-0.3,3.9-0.3c0.2,0,0.2,0.2,0.2,0.4V176.1z
			"/>
		<path fill="#003767" d="M107.5,172.5c0,2.1-1.3,4.6-3.7,4.6c-1.5,0-2.3-1.1-2.7-1.7v-6.8c0.5-0.3,1.4-0.8,2.2-0.8
			C106,167.8,107.5,170.1,107.5,172.5z M101.1,177.4c0.6,0.3,1.5,0.5,2.2,0.5c3.4,0,6.1-3,6.1-6.4c0-2.6-1.8-5.3-4.6-5.3
			c-1.5,0-2.8,1-3.8,1.8v-1.8c0-0.2-0.2-0.2-0.3-0.2c-0.1,0-0.2,0.1-0.2,0.1c-1,0.4-2,0.9-2.9,1.3v0.4c0.7,0.3,1.5,0.2,1.5,2.1v11.8
			c0,0.4-0.1,0.8-1,0.8h-0.9v0.6c1,0,2.1-0.1,3.1-0.1c1.1,0,2.1,0,3.2,0.1v-0.6h-1.1c-0.5,0-1.2,0-1.2-0.6V177.4z"/>
		<path fill="#003767" d="M109.1,182.3c2.2-0.5,4.1-1.9,4.1-4.7c0-1.3-0.9-2.9-2.5-2.9c-0.9,0-1.8,0.5-1.8,1.5
			c0,0.8,0.6,1.4,1.5,1.4c0.9,0,1.4,0.3,1.4,1.2c0,1.5-1.5,2.6-2.9,2.9L109.1,182.3z"/>
		<path fill="#003767" d="M121.1,162.6c0-1.7-0.9-1.8-2.3-1.8v-0.6c1.2,0,2.3,0.1,3.4,0.1c1.1,0,2.3,0,3.5-0.1v0.6
			c-1.3,0-2.3,0-2.3,1.8v12.5c0,1.7,0.9,1.8,2.3,1.8v0.6c-1.2,0-2.3-0.1-3.4-0.1c-1.2,0-2.4,0-3.6,0.1v-0.6c1.3,0,2.3,0,2.3-1.8
			V162.6z"/>
		<path fill="#003767" d="M126.4,169.5c0-0.9-0.3-1.2-1.4-1.6v-0.5c1.1-0.3,2.1-0.7,3.3-1.2c0.1,0,0.1,0,0.1,0.2v1.6
			c1.4-1,2.6-1.9,4.3-1.9c2.1,0,2.9,1.5,2.9,3.5v6.4c0,0.8,0.5,0.8,1.2,0.8h0.4v0.6c-0.9,0-1.7-0.1-2.6-0.1c-0.9,0-1.8,0-2.7,0.1
			v-0.6h0.4c0.7,0,1.2,0,1.2-0.8v-6.4c0-1.4-0.9-2.1-2.3-2.1c-0.8,0-2.1,0.6-2.9,1.2v7.4c0,0.8,0.5,0.8,1.2,0.8h0.4v0.6
			c-0.9,0-1.7-0.1-2.6-0.1s-1.8,0-2.7,0.1v-0.6h0.4c0.7,0,1.2,0,1.2-0.8V169.5z"/>
		<path fill="#003767" d="M146.2,175.3c-1.2,1.4-2.9,2.6-4.8,2.6c-2.6,0-4.9-2.5-4.9-5.1c0-3.6,2.6-6.6,6.2-6.6
			c1.3,0,3.4,0.4,3.4,1.7c0,0.6-0.3,1.1-0.9,1.1c-1,0-1-2-3.3-2c-2.1,0-3.3,2.4-3.3,4.3c0,2.6,1.6,4.8,4.3,4.8c1.3,0,2.1-0.4,3-1.2
			L146.2,175.3z"/>
		<path fill="#003767" d="M147,176.3c0-0.9,0.8-1.7,1.6-1.7s1.6,0.8,1.6,1.7c0,0.9-0.7,1.6-1.6,1.6C147.8,177.9,147,177.2,147,176.3
			z"/>
	</g>
	<g>
		<path fill="#003767" d="M65.4,58.7h-0.6c-0.1-1.1,0-1.9-1.7-1.9h-3.2v11.8c0,1.5,0.8,1.5,1.9,1.5v0.6c-1,0-1.9,0-2.9,0
			c-1,0-2,0-3.1,0v-0.6c1.1,0,1.9,0,1.9-1.5V56.8H55c-1.9,0-2,0.5-2.4,1.9h-0.6l0.2-3.4h0.4c0.2,0.6,0.8,0.6,1.3,0.6h9.6
			c0.8,0,1.3-0.2,1.4-0.6h0.4L65.4,58.7z"/>
		<path fill="#003767" d="M66.8,57.7c0-1.4-0.3-1.4-1.1-1.7v-0.3c0.8-0.3,1.7-0.7,2.2-0.9c0.2-0.1,0.4-0.2,0.5-0.2
			c0.1,0,0.2,0.1,0.2,0.3v8.1c0.2-0.2,1.5-1.9,3.3-1.9c1.8,0,2.8,1.4,2.8,3.2v5.2c0,0.7,0.5,0.7,1.1,0.7H76v0.6c-0.7,0-1.5,0-2.3,0
			c-0.8,0-1.5,0-2.3,0v-0.6h0.4c1,0,1.1-0.2,1.1-2.3v-2.4c0-1.5-0.1-3.2-2.1-3.2c-1,0-1.8,0.7-2.3,1.2v6c0,0.7,0.5,0.7,1.1,0.7h0.4
			v0.6c-0.7,0-1.5,0-2.2,0c-0.8,0-1.5,0-2.3,0v-0.6h0.4c0.6,0,1,0,1-0.7V57.7z"/>
		<path fill="#003767" d="M77.5,64.2c0.3-1.5,1.1-2.5,2.4-2.5c1.2,0,1.8,0.9,1.8,2c0,0.3-0.1,0.5-0.6,0.5H77.5z M83.4,64.9l0.2-0.1
			c0-0.1,0-0.3,0-0.4c0-2.2-1.9-3.3-3.6-3.3c-1.5,0-4.3,1.2-4.3,5.4c0,1.4,0.7,4.6,4,4.6c1.7,0,2.9-1.1,3.9-2.4l-0.3-0.3
			c-0.8,0.8-1.7,1.4-2.9,1.4c-1.7,0-3-1.7-3.1-3.7c0-0.7,0-1,0-1.2H83.4z"/>
	</g>
	<g>
		<path fill="#003767" d="M58.5,143.1h2.4c3.9,0,7.5,1.3,7.5,7c0,2.5-1.6,5.7-6.3,5.7c-3.6,0-3.6-1.5-3.6-3.3V143.1z M58.5,130.6
			c0.6,0,1.2-0.1,1.7-0.1c3.2,0,5.9,0.7,5.9,5.2c0,5-2.8,6-6,6h-1.5V130.6z M51,157c1.7,0,3.5-0.1,5.2-0.1c1.9,0,3.7,0.1,5.6,0.1
			c7,0,10.7-3.2,10.7-7.5c0-5.6-6-7.6-8.9-7.4V142c3.1-0.7,6.4-2.6,6.4-6.3c0-5.6-6.3-6.4-9.3-6.4c-1.4,0-2.9,0.1-5.2,0.1h-1.2
			c-1.1,0-2.2-0.1-3.3-0.1v1c2.1,0,3.6,0.1,3.6,2.9v20.1c0,2.3-1.6,2.8-3.6,2.7V157z"/>
		<path fill="#003767" d="M76.2,144.8c0.5-2.9,2.1-4.7,4.6-4.7c2.2,0,3.5,1.6,3.5,3.7c0,0.5-0.1,1-1.1,1H76.2z M87.3,146.1l0.4-0.2
			c0-0.2,0-0.5,0-0.7c0-4.2-3.5-6.2-6.7-6.2c-2.8,0-8,2.3-8,10.1c0,2.5,1.3,8.7,7.6,8.7c3.3,0,5.5-2.1,7.4-4.5l-0.6-0.6
			c-1.5,1.5-3.2,2.7-5.4,2.7c-3.2,0-5.6-3.1-5.8-6.9c-0.1-1.4-0.1-1.9,0-2.3H87.3z"/>
		<path fill="#003767" d="M89.7,144.2c0-1.5-0.4-1.9-2.3-2.6v-0.8c1.7-0.6,3.3-1.1,5.2-1.9c0.1,0,0.2,0.1,0.2,0.4v2.6
			c2.3-1.6,4.2-3,6.9-3c3.4,0,4.6,2.5,4.6,5.6v10.3c0,1.3,0.9,1.3,2,1.3h0.7v1c-1.4,0-2.8-0.1-4.2-0.1c-1.4,0-2.9,0-4.3,0.1v-1h0.7
			c1.1,0,1.9,0,1.9-1.3v-10.3c0-2.3-1.4-3.4-3.7-3.4c-1.3,0-3.3,1-4.6,1.9v11.8c0,1.3,0.9,1.3,2,1.3h0.7v1c-1.4,0-2.8-0.1-4.2-0.1
			c-1.4,0-2.9,0-4.3,0.1v-1h0.7c1.1,0,1.9,0,1.9-1.3V144.2z"/>
		<path fill="#003767" d="M108.7,144.8c0.5-2.9,2.1-4.7,4.6-4.7c2.2,0,3.5,1.6,3.5,3.7c0,0.5-0.1,1-1.1,1H108.7z M119.8,146.1
			l0.4-0.2c0-0.2,0-0.5,0-0.7c0-4.2-3.5-6.2-6.7-6.2c-2.8,0-8,2.3-8,10.1c0,2.5,1.3,8.7,7.6,8.7c3.3,0,5.5-2.1,7.4-4.5l-0.6-0.6
			c-1.5,1.5-3.2,2.7-5.4,2.7c-3.2,0-5.6-3.1-5.8-6.9c-0.1-1.4-0.1-1.9,0-2.3H119.8z"/>
		<path fill="#003767" d="M134.7,139.5v2.1h-9.3V155c0,1,1,1,1.9,1h1.8v1c-1.7,0-3.4-0.1-5.1-0.1c-1.6,0-3.3,0-4.9,0.1v-1h1.5
			c1.5,0,1.7-0.7,1.7-1.3v-13.1h-2.8v-0.7c0.9-0.6,2.8-1.2,2.8-2.5c0-2.6,0.7-6.5,3.2-9c2.2-2.3,4.3-2.7,4.8-2.7
			c0.7,0,1.8,0.2,1.8,1.6c0,0.9-0.4,1.6-1.4,1.6c-1.2,0-1.2-0.6-2.5-0.6c-2.4,0-2.7,2.9-2.7,4.5v5.7H134.7z"/>
		<path fill="#003767" d="M129.8,156h0.8c1.1,0,1.9,0,1.9-1.3v-10.8c0-1.7-0.6-2-2.1-2.8v-0.6c1.9-0.6,4.1-1.3,4.3-1.4
			c0.3-0.2,0.5-0.2,0.7-0.2c0.2,0,0.3,0.2,0.3,0.6v15.3c0,1.3,0.9,1.3,2,1.3h0.7v1c-1.4,0-2.7-0.1-4.2-0.1s-2.9,0-4.3,0.1V156z
			 M134.1,132.7c-1,0-1.9-1-1.9-2c0-1,1-1.9,1.9-1.9c1,0,1.9,0.8,1.9,1.9C136,131.8,135.1,132.7,134.1,132.7z"/>
		<path fill="#003767" d="M142.1,152.1c0,2.6,1.4,3.3,2.5,3.3c1.1,0,1.9-0.4,2.8-1.2l0.6,0.6c-1.4,1.4-3.1,2.7-5.3,2.7
			c-2.5,0-3.8-1.4-3.8-3.7v-12.3h-2.6V141c2.1-1.6,3.3-2.3,5.3-5.6h0.5v4.1h5.9v2.1h-5.9V152.1z"/>
	</g>
</g>
</svg>
